<?xml version="1.0" encoding="utf-8"?>
<!-- Generator: Adobe Illustrator 27.7.0, SVG Export Plug-In . SVG Version: 6.00 Build 0)  -->
<svg version="1.1" id="Layer_1" xmlns="http://www.w3.org/2000/svg" xmlns:xlink="http://www.w3.org/1999/xlink" x="0px" y="0px"
	 viewBox="0 0 375 375" style="enable-background:new 0 0 375 375;" xml:space="preserve">
<style type="text/css">
	.st0{clip-path:url(#SVGID_00000077284708387852840970000011837191604016081837_);fill:#FFBD59;}
	.st1{clip-path:url(#SVGID_00000062193575220451900290000004403198878628464792_);}
	.st2{font-family:'FuturaPT-Book';}
	.st3{font-size:207.1725px;}
	.st4{clip-path:url(#SVGID_00000139261634849287365480000003447584337242562982_);fill:#004AAD;}
	
		.st5{clip-path:url(#SVGID_00000139261634849287365480000003447584337242562982_);fill-rule:evenodd;clip-rule:evenodd;fill:#004AAD;}
	
		.st6{clip-path:url(#SVGID_00000139261634849287365480000003447584337242562982_);fill-rule:evenodd;clip-rule:evenodd;fill:#7ED957;}
	.st7{clip-path:url(#SVGID_00000139261634849287365480000003447584337242562982_);fill:#7ED957;}
	.st8{clip-path:url(#SVGID_00000139261634849287365480000003447584337242562982_);fill:#FFFFFF;}
</style>
<g>
	<g>
		<g>
			<g>
				<defs>
					<circle id="SVGID_1_" cx="184.57" cy="179.46" r="175.26"/>
				</defs>
				<clipPath id="SVGID_00000163036060448558903190000014369446297341744795_">
					<use xlink:href="#SVGID_1_"  style="overflow:visible;"/>
				</clipPath>
				
					<rect x="9.31" y="4.2" style="clip-path:url(#SVGID_00000163036060448558903190000014369446297341744795_);fill:#FFBD59;" width="350.51" height="350.51"/>
			</g>
		</g>
	</g>
</g>
<g>
	<defs>
		<rect id="SVGID_00000039814226934721878950000015585938161878519936_" y="-8.04" width="375" height="375"/>
	</defs>
	<clipPath id="SVGID_00000163788338158179665150000005106167631584381832_">
		<use xlink:href="#SVGID_00000039814226934721878950000015585938161878519936_"  style="overflow:visible;"/>
	</clipPath>
	<g style="clip-path:url(#SVGID_00000163788338158179665150000005106167631584381832_);">
		<text transform="matrix(1 0 0 1 34.9102 247.1894)" class="st2 st3">K</text>
	</g>
</g>
<g>
	<defs>
		<rect id="SVGID_00000181776184669235667980000013724915138485245098_" x="160.85" y="77.99" width="177" height="177"/>
	</defs>
	<clipPath id="SVGID_00000168820482363600385420000016260128015831391159_">
		<use xlink:href="#SVGID_00000181776184669235667980000013724915138485245098_"  style="overflow:visible;"/>
	</clipPath>
	<path style="clip-path:url(#SVGID_00000168820482363600385420000016260128015831391159_);fill:#004AAD;" d="M313.39,166.27
		c0,1.05-0.03,2.1-0.08,3.15c-0.05,1.05-0.13,2.1-0.23,3.15c-0.1,1.05-0.23,2.09-0.39,3.13c-0.15,1.04-0.33,2.08-0.54,3.11
		c-0.21,1.03-0.44,2.06-0.69,3.08c-0.26,1.02-0.54,2.03-0.84,3.04c-0.31,1.01-0.64,2-0.99,2.99c-0.35,0.99-0.73,1.97-1.14,2.94
		c-0.4,0.97-0.83,1.93-1.28,2.88c-0.45,0.95-0.92,1.89-1.42,2.82c-0.5,0.93-1.01,1.84-1.55,2.74s-1.1,1.79-1.69,2.66
		c-0.58,0.87-1.19,1.73-1.82,2.58s-1.27,1.67-1.94,2.49c-0.67,0.81-1.35,1.61-2.06,2.39c-0.71,0.78-1.43,1.54-2.17,2.28
		s-1.51,1.47-2.28,2.17c-0.78,0.71-1.58,1.39-2.39,2.06c-0.81,0.67-1.64,1.31-2.49,1.94c-0.84,0.63-1.7,1.23-2.58,1.82
		c-0.87,0.58-1.76,1.15-2.66,1.69c-0.9,0.54-1.82,1.06-2.74,1.55c-0.93,0.5-1.87,0.97-2.82,1.42c-0.95,0.45-1.91,0.88-2.88,1.28
		c-0.97,0.4-1.95,0.78-2.94,1.14c-0.99,0.35-1.99,0.68-2.99,0.99c-1.01,0.31-2.02,0.59-3.04,0.84c-1.02,0.26-2.05,0.49-3.08,0.69
		c-1.03,0.21-2.07,0.38-3.11,0.54c-1.04,0.15-2.08,0.28-3.13,0.39c-1.05,0.1-2.1,0.18-3.15,0.23c-1.05,0.05-2.1,0.08-3.15,0.08
		s-2.1-0.03-3.15-0.08s-2.1-0.13-3.15-0.23c-1.05-0.1-2.09-0.23-3.13-0.39c-1.04-0.15-2.08-0.33-3.11-0.54
		c-1.03-0.21-2.06-0.44-3.08-0.69c-1.02-0.26-2.03-0.54-3.04-0.84c-1.01-0.31-2-0.64-2.99-0.99c-0.99-0.35-1.97-0.73-2.94-1.14
		c-0.97-0.4-1.93-0.83-2.88-1.28c-0.95-0.45-1.89-0.92-2.82-1.42c-0.93-0.5-1.84-1.01-2.74-1.55s-1.79-1.1-2.66-1.69
		c-0.87-0.58-1.73-1.19-2.58-1.82c-0.84-0.63-1.67-1.27-2.49-1.94c-0.81-0.67-1.61-1.35-2.39-2.06c-0.78-0.71-1.54-1.43-2.28-2.17
		s-1.47-1.5-2.17-2.28c-0.71-0.78-1.39-1.58-2.06-2.39c-0.67-0.81-1.31-1.64-1.94-2.49c-0.63-0.84-1.23-1.7-1.82-2.58
		c-0.58-0.87-1.15-1.76-1.69-2.66c-0.54-0.9-1.06-1.82-1.55-2.74c-0.5-0.93-0.97-1.87-1.42-2.82c-0.45-0.95-0.88-1.91-1.28-2.88
		c-0.4-0.97-0.78-1.95-1.14-2.94c-0.35-0.99-0.68-1.99-0.99-2.99c-0.31-1.01-0.59-2.02-0.84-3.04c-0.26-1.02-0.49-2.05-0.69-3.08
		s-0.38-2.07-0.54-3.11c-0.15-1.04-0.28-2.08-0.39-3.13c-0.1-1.05-0.18-2.09-0.23-3.15c-0.05-1.05-0.08-2.1-0.08-3.15
		c0-1.05,0.03-2.1,0.08-3.15c0.05-1.05,0.13-2.1,0.23-3.15c0.1-1.05,0.23-2.09,0.39-3.13c0.15-1.04,0.33-2.08,0.54-3.11
		c0.21-1.03,0.44-2.06,0.69-3.08c0.26-1.02,0.54-2.03,0.84-3.04c0.31-1.01,0.64-2,0.99-2.99s0.73-1.97,1.14-2.94
		c0.4-0.97,0.83-1.93,1.28-2.88c0.45-0.95,0.92-1.89,1.42-2.82c0.5-0.93,1.01-1.84,1.55-2.74c0.54-0.9,1.1-1.79,1.69-2.66
		c0.58-0.87,1.19-1.73,1.82-2.58c0.63-0.84,1.27-1.67,1.94-2.49c0.67-0.81,1.35-1.61,2.06-2.39c0.71-0.78,1.43-1.54,2.17-2.28
		c0.74-0.74,1.5-1.47,2.28-2.17c0.78-0.71,1.58-1.39,2.39-2.06c0.81-0.67,1.64-1.31,2.49-1.94c0.84-0.63,1.7-1.23,2.58-1.82
		c0.87-0.58,1.76-1.15,2.66-1.69c0.9-0.54,1.82-1.06,2.74-1.55c0.93-0.5,1.87-0.97,2.82-1.42c0.95-0.45,1.91-0.88,2.88-1.28
		c0.97-0.4,1.95-0.78,2.94-1.14c0.99-0.35,1.99-0.68,2.99-0.99c1.01-0.31,2.02-0.59,3.04-0.84c1.02-0.26,2.05-0.49,3.08-0.69
		c1.03-0.21,2.07-0.38,3.11-0.54s2.08-0.28,3.13-0.39c1.05-0.1,2.09-0.18,3.15-0.23s2.1-0.08,3.15-0.08s2.1,0.03,3.15,0.08
		c1.05,0.05,2.1,0.13,3.15,0.23c1.05,0.1,2.09,0.23,3.13,0.39c1.04,0.15,2.08,0.33,3.11,0.54c1.03,0.21,2.06,0.44,3.08,0.69
		c1.02,0.26,2.03,0.54,3.04,0.84c1.01,0.31,2,0.64,2.99,0.99c0.99,0.35,1.97,0.73,2.94,1.14c0.97,0.4,1.93,0.83,2.88,1.28
		c0.95,0.45,1.89,0.92,2.82,1.42c0.93,0.5,1.84,1.01,2.74,1.55c0.9,0.54,1.79,1.1,2.66,1.69c0.87,0.58,1.73,1.19,2.58,1.82
		c0.84,0.63,1.67,1.27,2.49,1.94c0.81,0.67,1.61,1.35,2.39,2.06c0.78,0.71,1.54,1.43,2.28,2.17c0.74,0.74,1.47,1.51,2.17,2.28
		c0.71,0.78,1.39,1.58,2.06,2.39s1.31,1.64,1.94,2.49c0.63,0.84,1.23,1.7,1.82,2.58c0.58,0.87,1.15,1.76,1.69,2.66
		s1.06,1.82,1.55,2.74c0.5,0.93,0.97,1.87,1.42,2.82c0.45,0.95,0.88,1.91,1.28,2.88c0.4,0.97,0.78,1.95,1.14,2.94
		c0.35,0.99,0.68,1.99,0.99,2.99c0.31,1.01,0.59,2.02,0.84,3.04c0.26,1.02,0.49,2.05,0.69,3.08c0.21,1.03,0.38,2.07,0.54,3.11
		c0.15,1.04,0.28,2.08,0.39,3.13c0.1,1.05,0.18,2.09,0.23,3.15C313.36,164.17,313.39,165.22,313.39,166.27z"/>
	
		<rect x="243" y="84.12" style="clip-path:url(#SVGID_00000168820482363600385420000016260128015831391159_);fill-rule:evenodd;clip-rule:evenodd;fill:#004AAD;" width="12.26" height="36.83"/>
	
		<path style="clip-path:url(#SVGID_00000168820482363600385420000016260128015831391159_);fill-rule:evenodd;clip-rule:evenodd;fill:#004AAD;" d="
		M267.54,81.9v4.45c0,0.52-0.1,1.02-0.3,1.49s-0.48,0.9-0.85,1.27c-0.37,0.37-0.79,0.65-1.27,0.85s-0.98,0.3-1.49,0.3h-29.02
		c-0.52,0-1.02-0.1-1.49-0.3c-0.48-0.2-0.9-0.48-1.27-0.85c-0.37-0.37-0.65-0.79-0.85-1.27s-0.3-0.98-0.3-1.49V81.9
		c0-0.52,0.1-1.02,0.3-1.49c0.2-0.48,0.48-0.9,0.85-1.27c0.37-0.37,0.79-0.65,1.27-0.85c0.48-0.2,0.98-0.3,1.49-0.3h29.02
		c0.52,0,1.02,0.1,1.49,0.3s0.9,0.48,1.27,0.85c0.37,0.37,0.65,0.79,0.85,1.27C267.44,80.88,267.54,81.38,267.54,81.9z"/>
	
		<rect x="275.75" y="115.07" transform="matrix(0.7071 -0.7071 0.7071 0.7071 0.4582 243.5051)" style="clip-path:url(#SVGID_00000168820482363600385420000016260128015831391159_);fill-rule:evenodd;clip-rule:evenodd;fill:#004AAD;" width="36.83" height="12.26"/>
	
		<path style="clip-path:url(#SVGID_00000168820482363600385420000016260128015831391159_);fill-rule:evenodd;clip-rule:evenodd;fill:#7ED957;" d="
		M321.8,119.63l-3.15,3.15c-0.37,0.37-0.79,0.65-1.27,0.85c-0.48,0.2-0.98,0.3-1.49,0.3s-1.02-0.1-1.49-0.3
		c-0.48-0.2-0.9-0.48-1.27-0.85l-20.52-20.52c-0.37-0.37-0.65-0.79-0.85-1.27c-0.2-0.48-0.3-0.98-0.3-1.49s0.1-1.02,0.3-1.49
		s0.48-0.9,0.85-1.27l3.15-3.15c0.37-0.37,0.79-0.65,1.27-0.85c0.48-0.2,0.98-0.3,1.49-0.3s1.02,0.1,1.49,0.3
		c0.48,0.2,0.9,0.48,1.27,0.85l20.52,20.52c0.37,0.37,0.65,0.79,0.85,1.27s0.3,0.98,0.3,1.49c0,0.52-0.1,1.02-0.3,1.49
		S322.16,119.26,321.8,119.63z"/>
	
		<rect x="294.42" y="160.12" style="clip-path:url(#SVGID_00000168820482363600385420000016260128015831391159_);fill-rule:evenodd;clip-rule:evenodd;fill:#004AAD;" width="36.83" height="12.26"/>
	
		<path style="clip-path:url(#SVGID_00000168820482363600385420000016260128015831391159_);fill-rule:evenodd;clip-rule:evenodd;fill:#004AAD;" d="
		M329.01,147.83h4.45c0.52,0,1.02,0.1,1.49,0.3c0.48,0.2,0.9,0.48,1.27,0.85c0.37,0.37,0.65,0.79,0.85,1.27
		c0.2,0.48,0.3,0.98,0.3,1.49v29.02c0,0.52-0.1,1.02-0.3,1.49c-0.2,0.48-0.48,0.9-0.85,1.27c-0.37,0.37-0.79,0.65-1.27,0.85
		c-0.48,0.2-0.98,0.3-1.49,0.3h-4.45c-0.52,0-1.02-0.1-1.49-0.3c-0.48-0.2-0.9-0.48-1.27-0.85s-0.65-0.79-0.85-1.27
		c-0.2-0.48-0.3-0.98-0.3-1.49v-29.02c0-0.52,0.1-1.02,0.3-1.49c0.2-0.48,0.48-0.9,0.85-1.27c0.37-0.37,0.79-0.65,1.27-0.85
		C327.99,147.93,328.49,147.83,329.01,147.83z"/>
	
		<rect x="288.05" y="192.89" transform="matrix(0.7071 -0.7071 0.7071 0.7071 -63.2511 269.9037)" style="clip-path:url(#SVGID_00000168820482363600385420000016260128015831391159_);fill-rule:evenodd;clip-rule:evenodd;fill:#004AAD;" width="12.26" height="36.83"/>
	
		<path style="clip-path:url(#SVGID_00000168820482363600385420000016260128015831391159_);fill-rule:evenodd;clip-rule:evenodd;fill:#7ED957;" d="
		M295.74,238.94l-3.15-3.15c-0.37-0.37-0.65-0.79-0.85-1.27c-0.2-0.48-0.3-0.98-0.3-1.49s0.1-1.02,0.3-1.49
		c0.2-0.48,0.48-0.9,0.85-1.27l20.52-20.52c0.37-0.37,0.79-0.65,1.27-0.85c0.48-0.2,0.98-0.3,1.49-0.3s1.02,0.1,1.49,0.3
		c0.48,0.2,0.9,0.48,1.27,0.85l3.15,3.15c0.37,0.37,0.65,0.79,0.85,1.27c0.2,0.48,0.3,0.98,0.3,1.49s-0.1,1.02-0.3,1.49
		c-0.2,0.48-0.48,0.9-0.85,1.27l-20.52,20.52c-0.37,0.37-0.79,0.65-1.27,0.85c-0.48,0.2-0.98,0.3-1.49,0.3
		c-0.52,0-1.02-0.1-1.49-0.3C296.53,239.59,296.11,239.3,295.74,238.94z"/>
	
		<rect x="243" y="211.54" style="clip-path:url(#SVGID_00000168820482363600385420000016260128015831391159_);fill-rule:evenodd;clip-rule:evenodd;fill:#004AAD;" width="12.26" height="36.83"/>
	
		<path style="clip-path:url(#SVGID_00000168820482363600385420000016260128015831391159_);fill-rule:evenodd;clip-rule:evenodd;fill:#004AAD;" d="
		M230.7,250.62v-4.45c0-0.52,0.1-1.02,0.3-1.49c0.2-0.48,0.48-0.9,0.85-1.27c0.37-0.37,0.79-0.65,1.27-0.85
		c0.48-0.2,0.98-0.3,1.49-0.3h29.02c0.52,0,1.02,0.1,1.49,0.3c0.48,0.2,0.9,0.48,1.27,0.85c0.37,0.37,0.65,0.79,0.85,1.27
		c0.2,0.48,0.3,0.98,0.3,1.49v4.45c0,0.52-0.1,1.02-0.3,1.49c-0.2,0.48-0.48,0.9-0.85,1.27c-0.37,0.37-0.79,0.65-1.27,0.85
		c-0.48,0.2-0.98,0.3-1.49,0.3H234.6c-0.52,0-1.02-0.1-1.49-0.3c-0.48-0.2-0.9-0.48-1.27-0.85c-0.37-0.37-0.65-0.79-0.85-1.27
		C230.8,251.64,230.7,251.14,230.7,250.62z"/>
	
		<rect x="185.66" y="205.19" transform="matrix(0.7071 -0.7071 0.7071 0.7071 -89.6537 206.1953)" style="clip-path:url(#SVGID_00000168820482363600385420000016260128015831391159_);fill-rule:evenodd;clip-rule:evenodd;fill:#004AAD;" width="36.83" height="12.26"/>
	
		<path style="clip-path:url(#SVGID_00000168820482363600385420000016260128015831391159_);fill-rule:evenodd;clip-rule:evenodd;fill:#7ED957;" d="
		M176.44,212.89l3.15-3.15c0.37-0.37,0.79-0.65,1.27-0.85c0.48-0.2,0.98-0.3,1.49-0.3c0.52,0,1.02,0.1,1.49,0.3
		c0.48,0.2,0.9,0.48,1.27,0.85l20.52,20.52c0.37,0.37,0.65,0.79,0.85,1.27c0.2,0.48,0.3,0.98,0.3,1.49c0,0.52-0.1,1.02-0.3,1.49
		c-0.2,0.48-0.48,0.9-0.85,1.27l-3.15,3.15c-0.37,0.37-0.79,0.65-1.27,0.85c-0.48,0.2-0.98,0.3-1.49,0.3c-0.52,0-1.02-0.1-1.49-0.3
		c-0.48-0.2-0.9-0.48-1.27-0.85l-20.52-20.52c-0.37-0.37-0.65-0.79-0.85-1.27c-0.2-0.48-0.3-0.98-0.3-1.49c0-0.52,0.1-1.02,0.3-1.49
		C175.79,213.68,176.07,213.26,176.44,212.89z"/>
	
		<rect x="166.99" y="160.14" style="clip-path:url(#SVGID_00000168820482363600385420000016260128015831391159_);fill-rule:evenodd;clip-rule:evenodd;fill:#004AAD;" width="36.83" height="12.26"/>
	
		<path style="clip-path:url(#SVGID_00000168820482363600385420000016260128015831391159_);fill-rule:evenodd;clip-rule:evenodd;fill:#004AAD;" d="
		M164.76,147.83h4.45c0.52,0,1.02,0.1,1.49,0.3c0.48,0.2,0.9,0.48,1.27,0.85c0.37,0.37,0.65,0.79,0.85,1.27
		c0.2,0.48,0.3,0.98,0.3,1.49v29.02c0,0.52-0.1,1.02-0.3,1.49c-0.2,0.48-0.48,0.9-0.85,1.27s-0.79,0.65-1.27,0.85
		c-0.48,0.2-0.98,0.3-1.49,0.3h-4.45c-0.52,0-1.02-0.1-1.49-0.3c-0.48-0.2-0.9-0.48-1.27-0.85s-0.65-0.79-0.85-1.27
		c-0.2-0.48-0.3-0.98-0.3-1.49v-29.02c0-0.52,0.1-1.02,0.3-1.49c0.2-0.48,0.48-0.9,0.85-1.27c0.37-0.37,0.79-0.65,1.27-0.85
		C163.74,147.93,164.24,147.83,164.76,147.83z"/>
	
		<rect x="197.93" y="102.8" transform="matrix(0.7071 -0.7071 0.7071 0.7071 -25.9427 179.7947)" style="clip-path:url(#SVGID_00000168820482363600385420000016260128015831391159_);fill-rule:evenodd;clip-rule:evenodd;fill:#004AAD;" width="12.26" height="36.83"/>
	
		<path style="clip-path:url(#SVGID_00000168820482363600385420000016260128015831391159_);fill-rule:evenodd;clip-rule:evenodd;fill:#7ED957;" d="
		M202.49,93.58l3.15,3.15c0.37,0.37,0.65,0.79,0.85,1.27c0.2,0.48,0.3,0.98,0.3,1.49c0,0.52-0.1,1.02-0.3,1.49
		c-0.2,0.48-0.48,0.9-0.85,1.27l-20.52,20.52c-0.37,0.37-0.79,0.65-1.27,0.85c-0.48,0.2-0.98,0.3-1.49,0.3s-1.02-0.1-1.49-0.3
		c-0.48-0.2-0.9-0.48-1.27-0.85l-3.15-3.15c-0.37-0.37-0.65-0.79-0.85-1.27c-0.2-0.48-0.3-0.98-0.3-1.49s0.1-1.02,0.3-1.49
		c0.2-0.48,0.48-0.9,0.85-1.27l20.52-20.52c0.37-0.37,0.79-0.65,1.27-0.85s0.98-0.3,1.49-0.3c0.52,0,1.02,0.1,1.49,0.3
		C201.7,92.93,202.12,93.21,202.49,93.58z"/>
	<path style="clip-path:url(#SVGID_00000168820482363600385420000016260128015831391159_);fill:#7ED957;" d="M278.83,133.57
		c0,0.93-0.09,1.85-0.27,2.76c-0.18,0.91-0.45,1.8-0.81,2.66s-0.79,1.68-1.31,2.45c-0.52,0.77-1.1,1.49-1.76,2.15
		c-0.66,0.66-1.37,1.25-2.15,1.76c-0.77,0.52-1.59,0.95-2.45,1.31c-0.86,0.36-1.75,0.62-2.66,0.81c-0.91,0.18-1.83,0.27-2.76,0.27
		c-0.93,0-1.85-0.09-2.76-0.27c-0.91-0.18-1.8-0.45-2.66-0.81c-0.86-0.36-1.68-0.79-2.45-1.31c-0.77-0.52-1.49-1.1-2.15-1.76
		c-0.66-0.66-1.25-1.37-1.76-2.15c-0.52-0.77-0.95-1.59-1.31-2.45s-0.62-1.75-0.81-2.66c-0.18-0.91-0.27-1.83-0.27-2.76
		c0-0.93,0.09-1.85,0.27-2.76c0.18-0.91,0.45-1.8,0.81-2.66s0.79-1.68,1.31-2.45c0.52-0.77,1.1-1.49,1.76-2.15
		c0.66-0.66,1.37-1.25,2.15-1.76c0.77-0.52,1.59-0.95,2.45-1.31c0.86-0.36,1.75-0.62,2.66-0.81c0.91-0.18,1.83-0.27,2.76-0.27
		c0.93,0,1.85,0.09,2.76,0.27c0.91,0.18,1.8,0.45,2.66,0.81c0.86,0.36,1.68,0.79,2.45,1.31c0.77,0.52,1.49,1.1,2.15,1.76
		c0.66,0.66,1.25,1.37,1.76,2.15c0.52,0.77,0.95,1.59,1.31,2.45s0.62,1.75,0.81,2.66C278.74,131.72,278.83,132.64,278.83,133.57z"/>
	
		<path style="clip-path:url(#SVGID_00000168820482363600385420000016260128015831391159_);fill-rule:evenodd;clip-rule:evenodd;fill:#7ED957;" d="
		M273.7,147.24c-2.59,3.04-6.45,4.95-10.76,4.95c-7.86,0-14.17-6.31-14.17-14.17c0-0.14,0-0.27,0-0.41
		c1.82,7.08,8.22,12.35,15.89,12.35C267.97,149.97,271.11,148.97,273.7,147.24z"/>
	<path style="clip-path:url(#SVGID_00000168820482363600385420000016260128015831391159_);fill:#7ED957;" d="M220.16,152.55
		c0.66,0.38,1.28,0.83,1.86,1.33c0.58,0.5,1.1,1.06,1.56,1.67c0.47,0.61,0.87,1.25,1.21,1.94c0.34,0.69,0.61,1.4,0.8,2.14
		c0.2,0.74,0.32,1.49,0.37,2.25c0.05,0.76,0.03,1.52-0.07,2.28s-0.27,1.5-0.52,2.22c-0.25,0.72-0.56,1.42-0.94,2.08
		c-0.38,0.66-0.83,1.28-1.33,1.86c-0.5,0.58-1.06,1.1-1.67,1.56s-1.25,0.87-1.94,1.21s-1.4,0.61-2.14,0.8
		c-0.74,0.2-1.49,0.32-2.25,0.37c-0.76,0.05-1.52,0.03-2.28-0.07c-0.76-0.1-1.5-0.27-2.22-0.52c-0.72-0.25-1.42-0.56-2.08-0.94
		c-0.66-0.38-1.28-0.83-1.86-1.33c-0.58-0.5-1.1-1.06-1.56-1.67c-0.47-0.61-0.87-1.25-1.21-1.94c-0.34-0.69-0.61-1.4-0.8-2.14
		c-0.2-0.74-0.32-1.49-0.37-2.25c-0.05-0.76-0.03-1.52,0.07-2.28s0.27-1.5,0.52-2.22c0.25-0.72,0.56-1.42,0.94-2.08
		c0.38-0.66,0.83-1.28,1.33-1.86c0.5-0.58,1.06-1.1,1.67-1.56s1.25-0.87,1.94-1.21c0.69-0.34,1.4-0.61,2.14-0.8
		c0.74-0.2,1.49-0.32,2.25-0.37c0.76-0.05,1.52-0.03,2.28,0.07c0.76,0.1,1.5,0.27,2.22,0.52
		C218.81,151.85,219.5,152.17,220.16,152.55z"/>
	
		<path style="clip-path:url(#SVGID_00000168820482363600385420000016260128015831391159_);fill-rule:evenodd;clip-rule:evenodd;fill:#7ED957;" d="
		M227.79,161.82c1.09,3.09,0.86,6.63-0.91,9.72c-3.18,5.54-10.31,7.45-15.89,4.27c-0.09-0.09-0.18-0.14-0.27-0.18
		c5.77,1.63,12.17-0.82,15.3-6.27C227.38,167,227.97,164.36,227.79,161.82z"/>
	<path style="clip-path:url(#SVGID_00000168820482363600385420000016260128015831391159_);fill:#7ED957;" d="M287.19,198.76
		c-0.4,0.68-0.85,1.32-1.37,1.92c-0.52,0.59-1.1,1.13-1.72,1.61c-0.63,0.48-1.29,0.9-2,1.25s-1.44,0.63-2.21,0.83
		c-0.76,0.2-1.54,0.33-2.33,0.38c-0.79,0.05-1.57,0.03-2.36-0.08c-0.78-0.1-1.55-0.28-2.3-0.54c-0.75-0.25-1.46-0.58-2.15-0.97
		c-0.68-0.4-1.32-0.85-1.92-1.37c-0.59-0.52-1.13-1.09-1.61-1.72c-0.48-0.63-0.9-1.29-1.25-2c-0.35-0.71-0.63-1.44-0.83-2.21
		s-0.33-1.54-0.38-2.33c-0.05-0.79-0.03-1.57,0.08-2.36c0.1-0.78,0.28-1.55,0.54-2.3c0.25-0.75,0.58-1.46,0.97-2.15
		c0.4-0.68,0.85-1.32,1.37-1.92c0.52-0.59,1.1-1.13,1.72-1.61c0.63-0.48,1.29-0.9,2-1.25s1.44-0.63,2.21-0.83
		c0.76-0.2,1.54-0.33,2.33-0.38c0.79-0.05,1.57-0.03,2.36,0.08c0.78,0.1,1.55,0.28,2.3,0.54c0.75,0.25,1.46,0.58,2.15,0.97
		c0.68,0.4,1.32,0.85,1.92,1.37c0.59,0.52,1.13,1.09,1.61,1.72c0.48,0.63,0.9,1.29,1.25,2c0.35,0.71,0.63,1.44,0.83,2.21
		c0.2,0.76,0.33,1.54,0.38,2.33c0.05,0.79,0.03,1.57-0.08,2.36c-0.1,0.78-0.28,1.55-0.54,2.3
		C287.91,197.36,287.59,198.08,287.19,198.76z"/>
	
		<path style="clip-path:url(#SVGID_00000168820482363600385420000016260128015831391159_);fill-rule:evenodd;clip-rule:evenodd;fill:#7ED957;" d="
		M277.65,206.64c-3.22,1.14-6.9,0.91-10.04-0.91c-5.77-3.31-7.77-10.67-4.4-16.44c0.05-0.09,0.09-0.18,0.18-0.32
		c-1.68,5.99,0.82,12.58,6.4,15.8C272.29,206.23,275.01,206.82,277.65,206.64L277.65,206.64z"/>
	<path style="clip-path:url(#SVGID_00000168820482363600385420000016260128015831391159_);fill:#7ED957;" d="M297.21,151.44
		c0.29,0.16,0.55,0.36,0.8,0.57c0.25,0.22,0.47,0.46,0.67,0.72s0.37,0.54,0.52,0.84c0.15,0.3,0.26,0.6,0.35,0.92
		c0.09,0.32,0.14,0.64,0.16,0.97c0.02,0.33,0.01,0.66-0.03,0.98c-0.04,0.33-0.12,0.65-0.22,0.96c-0.11,0.31-0.24,0.61-0.41,0.9
		c-0.17,0.29-0.36,0.55-0.57,0.8c-0.22,0.25-0.46,0.47-0.72,0.67c-0.26,0.2-0.54,0.37-0.84,0.52c-0.3,0.15-0.6,0.26-0.92,0.35
		c-0.32,0.09-0.64,0.14-0.97,0.16c-0.33,0.02-0.66,0.01-0.98-0.03c-0.33-0.04-0.65-0.12-0.96-0.22c-0.31-0.11-0.61-0.24-0.9-0.41
		s-0.55-0.36-0.8-0.57s-0.47-0.46-0.67-0.72c-0.2-0.26-0.37-0.54-0.52-0.84c-0.15-0.3-0.26-0.6-0.35-0.92
		c-0.09-0.32-0.14-0.64-0.16-0.97c-0.02-0.33-0.01-0.66,0.03-0.98c0.04-0.33,0.12-0.65,0.22-0.96c0.11-0.31,0.24-0.61,0.41-0.9
		c0.16-0.29,0.36-0.55,0.57-0.8c0.22-0.25,0.46-0.47,0.72-0.67c0.26-0.2,0.54-0.37,0.84-0.52c0.3-0.15,0.6-0.26,0.92-0.35
		c0.32-0.09,0.64-0.14,0.97-0.16c0.33-0.02,0.66-0.01,0.98,0.03c0.33,0.04,0.65,0.12,0.96,0.22
		C296.63,151.14,296.93,151.27,297.21,151.44z"/>
	<path style="clip-path:url(#SVGID_00000168820482363600385420000016260128015831391159_);fill:#FFFFFF;" d="M277.83,163.24
		c0.29,0.16,0.55,0.36,0.8,0.57c0.25,0.22,0.47,0.46,0.67,0.72c0.2,0.26,0.37,0.54,0.52,0.84c0.15,0.3,0.26,0.6,0.35,0.92
		c0.09,0.32,0.14,0.64,0.16,0.97c0.02,0.33,0.01,0.66-0.03,0.98c-0.04,0.33-0.12,0.65-0.22,0.96s-0.24,0.61-0.41,0.9
		c-0.17,0.29-0.36,0.55-0.57,0.8c-0.22,0.25-0.46,0.47-0.72,0.67c-0.26,0.2-0.54,0.37-0.84,0.52s-0.6,0.26-0.92,0.35
		c-0.32,0.09-0.64,0.14-0.97,0.16c-0.33,0.02-0.66,0.01-0.98-0.03s-0.65-0.12-0.96-0.22s-0.61-0.24-0.9-0.41s-0.55-0.36-0.8-0.57
		c-0.25-0.22-0.47-0.46-0.67-0.72c-0.2-0.26-0.37-0.54-0.52-0.84c-0.15-0.3-0.26-0.6-0.35-0.92c-0.09-0.32-0.14-0.64-0.16-0.97
		c-0.02-0.33-0.01-0.66,0.03-0.98c0.04-0.33,0.12-0.65,0.22-0.96c0.11-0.31,0.24-0.61,0.41-0.9c0.17-0.29,0.36-0.55,0.57-0.8
		c0.22-0.25,0.46-0.47,0.72-0.67c0.26-0.2,0.54-0.37,0.84-0.52c0.3-0.15,0.6-0.26,0.92-0.35c0.32-0.09,0.64-0.14,0.97-0.16
		c0.33-0.02,0.66-0.01,0.98,0.03c0.33,0.04,0.65,0.12,0.96,0.22S277.55,163.07,277.83,163.24z"/>
	<path style="clip-path:url(#SVGID_00000168820482363600385420000016260128015831391159_);fill:#7ED957;" d="M229.26,130.15
		c0.29,0.17,0.55,0.36,0.8,0.57c0.25,0.22,0.47,0.46,0.67,0.72c0.2,0.26,0.37,0.54,0.52,0.84s0.26,0.6,0.35,0.92
		c0.09,0.32,0.14,0.64,0.16,0.97c0.02,0.33,0.01,0.66-0.03,0.98c-0.04,0.33-0.12,0.65-0.22,0.96c-0.11,0.31-0.24,0.61-0.41,0.9
		c-0.16,0.29-0.36,0.55-0.57,0.8c-0.22,0.25-0.46,0.47-0.72,0.67c-0.26,0.2-0.54,0.37-0.84,0.52c-0.3,0.15-0.6,0.26-0.92,0.35
		c-0.32,0.09-0.64,0.14-0.97,0.16c-0.33,0.02-0.66,0.01-0.98-0.03c-0.33-0.04-0.65-0.12-0.96-0.22c-0.31-0.11-0.61-0.24-0.9-0.41
		c-0.29-0.16-0.55-0.36-0.8-0.57c-0.25-0.22-0.47-0.46-0.67-0.72c-0.2-0.26-0.37-0.54-0.52-0.84c-0.15-0.3-0.26-0.6-0.35-0.92
		c-0.09-0.32-0.14-0.64-0.16-0.97c-0.02-0.33-0.01-0.66,0.03-0.98c0.04-0.33,0.12-0.65,0.22-0.96c0.11-0.31,0.24-0.61,0.41-0.9
		c0.16-0.29,0.36-0.55,0.57-0.8c0.22-0.25,0.46-0.47,0.72-0.67c0.26-0.2,0.54-0.37,0.84-0.52c0.3-0.15,0.6-0.26,0.92-0.35
		c0.32-0.09,0.64-0.14,0.97-0.16c0.33-0.02,0.66-0.01,0.98,0.03c0.33,0.04,0.65,0.12,0.96,0.22
		C228.67,129.85,228.97,129.98,229.26,130.15z"/>
	<path style="clip-path:url(#SVGID_00000168820482363600385420000016260128015831391159_);fill:#FFFFFF;" d="M241.6,113.15
		c0.29,0.17,0.55,0.36,0.8,0.57c0.25,0.22,0.47,0.46,0.67,0.72c0.2,0.26,0.37,0.54,0.52,0.84c0.15,0.3,0.26,0.6,0.35,0.92
		c0.09,0.32,0.14,0.64,0.16,0.97c0.02,0.33,0.01,0.66-0.03,0.98c-0.04,0.33-0.12,0.65-0.22,0.96c-0.11,0.31-0.24,0.61-0.41,0.9
		c-0.17,0.29-0.36,0.55-0.57,0.8c-0.22,0.25-0.46,0.47-0.72,0.67c-0.26,0.2-0.54,0.37-0.84,0.52c-0.3,0.15-0.6,0.26-0.92,0.35
		c-0.32,0.09-0.64,0.14-0.97,0.16c-0.33,0.02-0.66,0.01-0.98-0.03c-0.33-0.04-0.65-0.12-0.96-0.22c-0.31-0.11-0.61-0.24-0.9-0.41
		s-0.55-0.36-0.8-0.57c-0.25-0.22-0.47-0.46-0.67-0.72c-0.2-0.26-0.37-0.54-0.52-0.84c-0.15-0.3-0.26-0.6-0.35-0.92
		c-0.09-0.32-0.14-0.64-0.16-0.97c-0.02-0.33-0.01-0.66,0.03-0.98c0.04-0.33,0.12-0.65,0.22-0.96c0.11-0.31,0.24-0.61,0.41-0.9
		c0.17-0.29,0.36-0.55,0.57-0.8c0.22-0.25,0.46-0.47,0.72-0.67c0.26-0.2,0.54-0.37,0.84-0.52s0.6-0.26,0.92-0.35
		c0.32-0.09,0.64-0.14,0.97-0.16c0.33-0.02,0.66-0.01,0.98,0.03c0.33,0.04,0.65,0.12,0.96,0.22
		C241.02,112.85,241.32,112.98,241.6,113.15z"/>
	<path style="clip-path:url(#SVGID_00000168820482363600385420000016260128015831391159_);fill:#7ED957;" d="M225.01,198.28
		c0.29,0.17,0.55,0.36,0.8,0.57c0.25,0.22,0.47,0.46,0.67,0.72c0.2,0.26,0.37,0.54,0.52,0.84c0.15,0.3,0.26,0.6,0.35,0.92
		c0.09,0.32,0.14,0.64,0.16,0.97c0.02,0.33,0.01,0.66-0.03,0.98c-0.04,0.33-0.12,0.65-0.22,0.96c-0.11,0.31-0.24,0.61-0.41,0.9
		c-0.16,0.29-0.36,0.55-0.57,0.8c-0.22,0.25-0.46,0.47-0.72,0.67c-0.26,0.2-0.54,0.37-0.84,0.52c-0.3,0.15-0.6,0.26-0.92,0.35
		c-0.32,0.09-0.64,0.14-0.97,0.16c-0.33,0.02-0.66,0.01-0.98-0.03c-0.33-0.04-0.65-0.12-0.96-0.22c-0.31-0.11-0.61-0.24-0.9-0.41
		c-0.29-0.16-0.55-0.36-0.8-0.57c-0.25-0.22-0.47-0.46-0.67-0.72c-0.2-0.26-0.37-0.54-0.52-0.84s-0.26-0.6-0.35-0.92
		c-0.09-0.32-0.14-0.64-0.16-0.97c-0.02-0.33-0.01-0.66,0.03-0.98c0.04-0.33,0.12-0.65,0.22-0.96c0.11-0.31,0.24-0.61,0.41-0.9
		c0.16-0.29,0.36-0.55,0.57-0.8c0.22-0.25,0.46-0.47,0.72-0.67c0.26-0.2,0.54-0.37,0.84-0.52c0.3-0.15,0.6-0.26,0.92-0.35
		c0.32-0.09,0.64-0.14,0.97-0.16c0.33-0.02,0.66-0.01,0.98,0.03s0.65,0.12,0.96,0.22C224.43,197.98,224.73,198.12,225.01,198.28z"/>
	<path style="clip-path:url(#SVGID_00000168820482363600385420000016260128015831391159_);fill:#FFFFFF;" d="M245.73,172.62
		c0.29,0.17,0.55,0.36,0.8,0.57c0.25,0.22,0.47,0.46,0.67,0.72c0.2,0.26,0.37,0.54,0.52,0.84c0.15,0.3,0.26,0.6,0.35,0.92
		c0.09,0.32,0.14,0.64,0.16,0.97c0.02,0.33,0.01,0.66-0.03,0.98c-0.04,0.33-0.12,0.65-0.22,0.96c-0.11,0.31-0.24,0.61-0.41,0.9
		c-0.16,0.29-0.36,0.55-0.57,0.8c-0.22,0.25-0.46,0.47-0.72,0.67c-0.26,0.2-0.54,0.37-0.84,0.52c-0.3,0.15-0.6,0.26-0.92,0.35
		c-0.32,0.09-0.64,0.14-0.97,0.16c-0.33,0.02-0.66,0.01-0.98-0.03c-0.33-0.04-0.65-0.12-0.96-0.22c-0.31-0.11-0.61-0.24-0.9-0.41
		c-0.29-0.16-0.55-0.36-0.8-0.57c-0.25-0.22-0.47-0.46-0.67-0.72c-0.2-0.26-0.37-0.54-0.52-0.84c-0.15-0.3-0.26-0.6-0.35-0.92
		c-0.09-0.32-0.14-0.64-0.16-0.97c-0.02-0.33-0.01-0.66,0.03-0.98c0.04-0.33,0.12-0.65,0.22-0.96c0.11-0.31,0.24-0.61,0.41-0.9
		c0.17-0.29,0.36-0.55,0.57-0.8c0.22-0.25,0.46-0.47,0.72-0.67c0.26-0.2,0.54-0.37,0.84-0.52s0.6-0.26,0.92-0.35
		c0.32-0.09,0.64-0.14,0.97-0.16c0.33-0.02,0.66-0.01,0.98,0.03c0.33,0.04,0.65,0.12,0.96,0.22
		C245.15,172.32,245.44,172.46,245.73,172.62z"/>
	<path style="clip-path:url(#SVGID_00000168820482363600385420000016260128015831391159_);fill:#FFFFFF;" d="M254.65,206.67
		c0.29,0.17,0.55,0.36,0.8,0.57c0.25,0.22,0.47,0.46,0.67,0.72c0.2,0.26,0.37,0.54,0.52,0.84c0.15,0.3,0.26,0.6,0.35,0.92
		c0.09,0.32,0.14,0.64,0.16,0.97c0.02,0.33,0.01,0.66-0.03,0.98c-0.04,0.33-0.12,0.65-0.22,0.96c-0.11,0.31-0.24,0.61-0.41,0.9
		s-0.36,0.55-0.57,0.8c-0.22,0.25-0.46,0.47-0.72,0.67c-0.26,0.2-0.54,0.37-0.84,0.52c-0.3,0.15-0.6,0.26-0.92,0.35
		c-0.32,0.09-0.64,0.14-0.97,0.16c-0.33,0.02-0.66,0.01-0.98-0.03c-0.33-0.04-0.65-0.12-0.96-0.22s-0.61-0.24-0.9-0.41
		c-0.29-0.16-0.55-0.36-0.8-0.57c-0.25-0.22-0.47-0.46-0.67-0.72c-0.2-0.26-0.37-0.54-0.52-0.84c-0.15-0.3-0.26-0.6-0.35-0.92
		c-0.09-0.32-0.14-0.64-0.16-0.97c-0.02-0.33-0.01-0.66,0.03-0.98c0.04-0.33,0.12-0.65,0.22-0.96c0.11-0.31,0.24-0.61,0.41-0.9
		c0.17-0.29,0.36-0.55,0.57-0.8c0.22-0.25,0.46-0.47,0.72-0.67s0.54-0.37,0.84-0.52c0.3-0.15,0.6-0.26,0.92-0.35
		c0.32-0.09,0.64-0.14,0.97-0.16c0.33-0.02,0.66-0.01,0.98,0.03c0.33,0.04,0.65,0.12,0.96,0.22
		C254.07,206.36,254.37,206.5,254.65,206.67z"/>
</g>
</svg>
