<?xml version="1.0" encoding="UTF-8" standalone="no"?>
<svg
   xmlns:dc="http://purl.org/dc/elements/1.1/"
   xmlns:cc="http://creativecommons.org/ns#"
   xmlns:rdf="http://www.w3.org/1999/02/22-rdf-syntax-ns#"
   xmlns:svg="http://www.w3.org/2000/svg"
   xmlns="http://www.w3.org/2000/svg"
   viewBox="0 0 500 500"
   height="500"
   width="500"
   xml:space="preserve"
   id="svg2"
   version="1.1"><metadata
     id="metadata8"><rdf:RDF><cc:Work
         rdf:about=""><dc:format>image/svg+xml</dc:format><dc:type
           rdf:resource="http://purl.org/dc/dcmitype/StillImage" /></cc:Work></rdf:RDF></metadata><defs
     id="defs6"><clipPath
       id="clipPath14"
       clipPathUnits="userSpaceOnUse"><path
         id="path12"
         d="M 0,8.039989 H 375 V 383.03998 H 0 Z" /></clipPath><clipPath
       id="clipPath24"
       clipPathUnits="userSpaceOnUse"><path
         style="clip-rule:evenodd"
         id="path22"
         d="M 0,0 H 1562.5 V 1562.5 H 0 Z" /></clipPath><clipPath
       id="clipPath36"
       clipPathUnits="userSpaceOnUse"><path
         style="clip-rule:evenodd"
         id="path34"
         d="M 0,0 H 1562.5 V 1562.5 H 0 Z" /></clipPath><clipPath
       id="clipPath48"
       clipPathUnits="userSpaceOnUse"><path
         id="path46"
         d="M 0,0 H 1562.5 V 1562.5 H 0 Z" /></clipPath><clipPath
       id="clipPath54"
       clipPathUnits="userSpaceOnUse"><path
         id="path52"
         d="M 0,0 H 1562.5 V 1562.5 H 0 Z" /></clipPath><clipPath
       id="clipPath60"
       clipPathUnits="userSpaceOnUse"><path
         id="path58"
         d="M 38.79763,51.018314 H 1499.261 V 1511.4817 H 38.79763 Z" /></clipPath><clipPath
       id="clipPath66"
       clipPathUnits="userSpaceOnUse"><path
         id="path64"
         d="m 769.0293,51.018314 c -403.29581,0 -730.23167,326.935846 -730.23167,730.231686 0,403.2958 326.93586,730.2317 730.23167,730.2317 403.2958,0 730.2317,-326.9359 730.2317,-730.2317 0,-403.29584 -326.9359,-730.231686 -730.2317,-730.231686 z" /></clipPath><clipPath
       id="clipPath78"
       clipPathUnits="userSpaceOnUse"><path
         style="clip-rule:evenodd"
         id="path76"
         d="M 0,0 H 1562.5 V 1562.5 H 0 Z" /></clipPath><clipPath
       id="clipPath96"
       clipPathUnits="userSpaceOnUse"><path
         style="clip-rule:evenodd"
         id="path94"
         d="M 670.20837,358.46338 H 1407.7084 V 1095.9634 H 670.20837 Z" /></clipPath></defs><g
     clip-path="url(#clipPath14)"
     transform="matrix(1.3333333,0,0,-1.3333333,0,510.71997)"
     id="g10"><g
       transform="matrix(0.23999999,0,0,-0.23999999,0,383.03998)"
       id="g16"><g
         id="g18"><g
           clip-path="url(#clipPath24)"
           id="g20"><g
             transform="scale(3.125)"
             id="g26"><path
               id="path28"
               style="fill:#ffffff;fill-opacity:1;fill-rule:nonzero;stroke:none"
               d="M 0,0 H 500 V 500 H 0 Z" /></g></g></g><g
         id="g30"><g
           clip-path="url(#clipPath36)"
           id="g32"><g
             transform="scale(3.125)"
             id="g38"><path
               id="path40"
               style="fill:#ffffff;fill-opacity:1;fill-rule:nonzero;stroke:none"
               d="M 0,0 H 500 V 500 H 0 Z" /></g></g></g><g
         id="g42"><g
           clip-path="url(#clipPath48)"
           id="g44"><g
             clip-path="url(#clipPath54)"
             id="g50"><g
               clip-path="url(#clipPath60)"
               id="g56"><g
                 clip-path="url(#clipPath66)"
                 id="g62"><g
                   transform="matrix(5.7049351,0,0,5.7049351,38.79763,51.018314)"
                   id="g68"><path
                     id="path70"
                     style="fill:#ffbd59;fill-opacity:1;fill-rule:nonzero;stroke:none"
                     d="M 0,0 H 256 V 256 H 0 Z" /></g></g></g></g></g></g><g
         id="g72"><g
           clip-path="url(#clipPath78)"
           id="g74"><g
             transform="matrix(3.125,0,0,3.125,145.45898,182.20802)"
             id="g80"><text
               id="text84"
               style="font-variant:normal;font-weight:normal;font-size:276.23001099px;font-family:FuturaLTPro;-inkscape-font-specification:FuturaLTPro-Book;writing-mode:lr-tb;fill:#000000;fill-opacity:1;fill-rule:nonzero;stroke:none"
               transform="translate(0,282)"><tspan
                 id="tspan82"
                 y="0"
                 x="0">K</tspan></text>
<text
               id="text88"
               style="font-variant:normal;font-weight:normal;font-size:276.23001099px;font-family:FuturaLTPro;-inkscape-font-specification:FuturaLTPro-Book;writing-mode:lr-tb;fill:#ffbd59;fill-opacity:1;fill-rule:nonzero;stroke:none"
               transform="translate(168.78125,282)"><tspan
                 id="tspan86"
                 y="0"
                 x="0">O</tspan></text>
</g></g></g><g
         id="g90"><g
           clip-path="url(#clipPath96)"
           id="g92"><g
             transform="matrix(18.921211,0,0,18.921211,670.20837,358.46338)"
             id="g98"><path
               id="path100"
               style="fill:#004aad;fill-opacity:1;fill-rule:nonzero;stroke:none"
               d="m 33.59,19.440001 c 0,0.231575 -0.0057,0.46301 -0.01705,0.694305 -0.01136,0.231296 -0.02839,0.462175 -0.05109,0.692635 -0.0227,0.230459 -0.05104,0.460222 -0.08502,0.689292 -0.03398,0.229069 -0.07356,0.457167 -0.11874,0.684292 -0.04518,0.227125 -0.0959,0.453005 -0.152169,0.677641 -0.05627,0.224636 -0.118011,0.447756 -0.185238,0.669361 -0.06722,0.221604 -0.139843,0.441424 -0.217857,0.65946 -0.07801,0.218039 -0.161335,0.434033 -0.249954,0.64798 -0.08862,0.213949 -0.182434,0.425593 -0.281445,0.634934 -0.09901,0.209344 -0.203098,0.416132 -0.312263,0.620361 -0.109163,0.204231 -0.223272,0.405661 -0.342327,0.604288 -0.119055,0.198629 -0.242909,0.394217 -0.371565,0.586765 -0.128657,0.192549 -0.261957,0.381825 -0.399906,0.567828 -0.137951,0.186002 -0.280381,0.368509 -0.42729,0.547519 -0.14691,0.179011 -0.298123,0.354307 -0.453638,0.525894 -0.155518,0.171587 -0.31515,0.339255 -0.478897,0.503003 -0.163748,0.163747 -0.331416,0.323379 -0.503001,0.478897 -0.171587,0.155515 -0.346883,0.30673 -0.525894,0.45364 -0.17901,0.146909 -0.361517,0.289339 -0.54752,0.427288 -0.186002,0.137949 -0.375278,0.271249 -0.567827,0.399906 -0.192549,0.128656 -0.388136,0.25251 -0.586765,0.371565 -0.198629,0.119055 -0.400059,0.233164 -0.604288,0.342327 -0.204231,0.109165 -0.411019,0.213249 -0.620362,0.312259 -0.209341,0.09901 -0.420986,0.19283 -0.634933,0.281449 -0.213947,0.08862 -0.429941,0.171936 -0.64798,0.24995 -0.218038,0.07802 -0.437858,0.150635 -0.65946,0.217858 -0.221605,0.06723 -0.444725,0.128971 -0.669359,0.185241 -0.224638,0.05627 -0.450518,0.106991 -0.677643,0.152169 -0.227127,0.04518 -0.455225,0.08476 -0.684292,0.11874 -0.22907,0.03398 -0.458835,0.06232 -0.689294,0.08502 -0.23046,0.0227 -0.461339,0.03973 -0.692635,0.05109 -0.231295,0.01136 -0.46273,0.01705 -0.694305,0.01705 -0.231577,0 -0.463013,-0.0057 -0.69431,-0.01705 -0.231294,-0.01136 -0.462173,-0.02839 -0.692632,-0.05109 -0.23046,-0.0227 -0.460225,-0.05104 -0.689293,-0.08502 -0.229071,-0.03398 -0.457169,-0.07356 -0.684294,-0.11874 -0.227125,-0.04518 -0.453007,-0.0959 -0.677641,-0.152169 -0.224636,-0.05627 -0.447756,-0.118011 -0.669359,-0.185238 -0.221605,-0.06722 -0.441426,-0.139843 -0.659465,-0.217857 C 14.454961,32.684834 14.238967,32.601509 14.02502,32.51289 13.811073,32.42427 13.599429,32.330456 13.390087,32.231445 13.180745,32.132435 12.973959,32.028347 12.769728,31.919182 12.565505,31.810019 12.364075,31.69591 12.165445,31.576855 11.966817,31.4578 11.771229,31.333946 11.578681,31.20529 11.386133,31.076633 11.196858,30.943333 11.010855,30.805384 10.824852,30.667433 10.642345,30.525003 10.463336,30.378094 10.284326,30.231184 10.109027,30.079971 9.9374409,29.924456 9.7658548,29.768938 9.5981884,29.609306 9.4344397,29.445559 9.2706909,29.281811 9.1110592,29.114143 8.9555426,28.942558 8.8000259,28.770971 8.6488123,28.595675 8.5019026,28.416664 8.3549929,28.237654 8.2125635,28.055147 8.0746136,27.869144 7.9366641,27.683142 7.8033614,27.493866 7.674705,27.301317 7.5460486,27.108768 7.422194,26.913181 7.3031406,26.714552 7.1840868,26.515923 7.0699782,26.314493 6.9608145,26.110264 6.8516507,25.906033 6.7475634,25.699245 6.6485519,25.489902 6.5495405,25.280561 6.4557247,25.068916 6.367105,24.854969 6.2784848,24.641022 6.1951671,24.425028 6.1171517,24.206989 6.0391364,23.988951 5.9665174,23.769131 5.8992944,23.547529 5.8320713,23.325924 5.7703261,23.102804 5.7140584,22.87817 5.6577902,22.653532 5.6070666,22.427652 5.5618887,22.200527 5.5167108,21.9734 5.4771323,21.745302 5.4431534,21.516235 5.409174,21.287165 5.3808351,21.0574 5.3581371,20.826941 c -0.022698,-0.23046 -0.039729,-0.461339 -0.051092,-0.692635 -0.011363,-0.231295 -0.017045,-0.46273 -0.017045,-0.694305 0,-0.231577 0.00568,-0.463013 0.017045,-0.69431 0.011362,-0.231294 0.028393,-0.462173 0.051092,-0.692632 0.022698,-0.23046 0.051037,-0.460225 0.085016,-0.689293 0.033979,-0.229071 0.073558,-0.457169 0.1187358,-0.684294 0.045178,-0.227125 0.095902,-0.453007 0.1521697,-0.677641 0.056268,-0.224636 0.1180134,-0.447756 0.1852365,-0.669359 0.067222,-0.221605 0.1398415,-0.441426 0.2178568,-0.659465 0.078015,-0.218038 0.1613331,-0.434032 0.2499533,-0.647979 0.08862,-0.213947 0.1824355,-0.425591 0.2814465,-0.634933 0.099011,-0.209342 0.2030987,-0.416128 0.3122625,-0.620359 0.1091638,-0.204231 0.2232723,-0.405661 0.3423257,-0.604291 0.1190534,-0.198628 0.2429085,-0.394216 0.3715649,-0.586764 0.1286568,-0.192548 0.2619595,-0.381823 0.399909,-0.567826 0.1379499,-0.186003 0.2803793,-0.36851 0.427289,-0.547519 0.1469097,-0.17901 0.2981233,-0.354309 0.45364,-0.5258951 C 9.1110592,9.7658548 9.2706909,9.5981884 9.4344397,9.4344397 9.5981884,9.2706909 9.7658548,9.1110592 9.9374409,8.9555426 10.109027,8.8000259 10.284326,8.6488123 10.463336,8.5019026 c 0.179009,-0.1469097 0.361516,-0.2893391 0.547519,-0.427289 0.186003,-0.1379495 0.375278,-0.2712522 0.567826,-0.3999086 0.192548,-0.1286564 0.388136,-0.252511 0.586764,-0.3715644 0.19863,-0.1190538 0.40006,-0.2331624 0.604291,-0.3423261 0.204231,-0.1091638 0.411017,-0.2132511 0.620359,-0.3122626 0.209342,-0.099011 0.420986,-0.1928272 0.634933,-0.2814469 0.213947,-0.08862 0.429941,-0.1719379 0.647979,-0.2499533 0.218039,-0.078015 0.43786,-0.1506343 0.659464,-0.2178573 0.221604,-0.067223 0.444724,-0.1289683 0.66936,-0.185236 0.224634,-0.056268 0.450516,-0.1069918 0.677641,-0.1521697 0.227125,-0.045178 0.455223,-0.084756 0.684292,-0.1187353 0.22907,-0.033979 0.458835,-0.062318 0.689295,-0.085016 0.230459,-0.022698 0.461338,-0.039729 0.692634,-0.051092 0.231295,-0.011363 0.462731,-0.017045 0.694308,-0.017045 0.231575,0 0.46301,0.00568 0.694305,0.017045 0.231296,0.011363 0.462175,0.028394 0.692635,0.051092 0.230459,0.022698 0.460222,0.051037 0.689292,0.085016 0.229069,0.033979 0.457167,0.073557 0.684292,0.1187348 0.227125,0.045178 0.453005,0.095902 0.677641,0.1521697 0.224636,0.056268 0.447756,0.1180134 0.669361,0.1852365 0.221604,0.067222 0.441424,0.1398415 0.65946,0.2178568 0.218039,0.078015 0.434033,0.1613331 0.64798,0.2499533 0.213949,0.08862 0.425593,0.1824355 0.634934,0.2814465 0.209344,0.099012 0.416132,0.2030992 0.620361,0.312263 0.204231,0.1091637 0.405661,0.2232723 0.604288,0.3423261 0.198629,0.1190534 0.394217,0.242908 0.586765,0.3715649 0.192549,0.1286569 0.381825,0.2619596 0.567828,0.399909 0.186002,0.137949 0.368509,0.2803784 0.547519,0.4272881 0.179011,0.1469097 0.354307,0.2981233 0.525894,0.45364 0.171587,0.1555166 0.339255,0.3151483 0.503003,0.4788971 0.163747,0.1637487 0.323379,0.3314151 0.478897,0.5030012 0.155515,0.1715856 0.30673,0.3468846 0.45364,0.5258946 0.146909,0.179009 0.289339,0.361516 0.427288,0.547519 0.137949,0.186003 0.271249,0.375278 0.399906,0.567826 0.128656,0.192548 0.25251,0.388136 0.371565,0.586764 0.119055,0.19863 0.233164,0.40006 0.342327,0.604291 0.109165,0.204231 0.213249,0.411017 0.312259,0.620359 0.09901,0.209342 0.19283,0.420986 0.281449,0.634933 0.08862,0.213947 0.171936,0.429941 0.24995,0.647979 0.07802,0.218039 0.150635,0.43786 0.217858,0.659464 0.06723,0.221604 0.128971,0.444724 0.185241,0.66936 0.05627,0.224634 0.106991,0.450516 0.152169,0.677641 0.04518,0.227125 0.08476,0.455223 0.11874,0.684292 0.03398,0.22907 0.06232,0.458835 0.08502,0.689295 0.0227,0.230459 0.03973,0.461338 0.05109,0.692634 0.01136,0.231295 0.01705,0.462731 0.01705,0.694308 z" /><path
               id="path102"
               style="fill:#004aad;fill-opacity:1;fill-rule:evenodd;stroke:none"
               d="m 18.09,1.35 h 2.700001 V 9.4599997 H 18.09 Z" /></g><g
             transform="matrix(0,18.921211,-18.921211,0,1114.7433,358.46338)"
             id="g104"><path
               id="path106"
               style="fill:#004aad;fill-opacity:1;fill-rule:evenodd;stroke:none"
               d="M 0.86000001,0 H 1.84 C 1.954043,0 2.0637455,0.0218212 2.1691074,0.0654636 2.2744696,0.10910599 2.367471,0.17124751 2.4481115,0.25188816 2.5287521,0.3325288 2.5908935,0.42553014 2.634536,0.53089225 2.6781785,0.63625431 2.6999998,0.7459569 2.7,0.86000001 V 7.2499995 C 2.6999998,7.3640423 2.678178,7.4737444 2.634536,7.5791059 2.5908935,7.6844678 2.5287521,7.7774692 2.4481115,7.8581104 2.367471,7.9387507 2.2744696,8.0008926 2.1691074,8.0445347 2.0637455,8.0881777 1.954043,8.1099987 1.84,8.1099997 H 0.86000001 C 0.7459569,8.1099987 0.63625431,8.0881777 0.53089225,8.0445347 0.42553014,8.0008926 0.3325288,7.9387512 0.25188816,7.8581114 0.17124751,7.7774701 0.10910599,7.6844687 0.0654636,7.5791068 0.0218212,7.4737444 0,7.3640423 0,7.2499995 V 0.86000001 C 0,0.7459569 0.0218212,0.63625431 0.0654636,0.53089225 0.10910599,0.42553014 0.17124751,0.3325288 0.25188816,0.25188816 0.3325288,0.17124751 0.42553014,0.10910599 0.53089225,0.0654636 0.63625431,0.0218212 0.7459569,0 0.86000001,0 Z" /></g><g
             transform="matrix(13.379317,13.379317,-13.379317,13.379317,1261.8787,466.18256)"
             id="g108"><path
               id="path110"
               style="fill:#004aad;fill-opacity:1;fill-rule:evenodd;stroke:none"
               d="M 0,0 H 2.7 V 8.1099997 H 0 Z" /></g><g
             transform="matrix(-13.379317,13.379317,-13.379317,-13.379317,1352.3235,520.45703)"
             id="g112"><path
               id="path114"
               style="fill:#7ed957;fill-opacity:1;fill-rule:evenodd;stroke:none"
               d="M 0.86000001,0 H 1.84 C 1.954043,0 2.0637455,0.0218212 2.1691074,0.0654636 2.2744696,0.10910599 2.367471,0.17124751 2.4481115,0.25188816 2.5287521,0.3325288 2.5908935,0.42553014 2.634536,0.53089225 2.6781785,0.63625431 2.6999998,0.7459569 2.7,0.86000001 V 7.2499995 C 2.6999998,7.3640423 2.678178,7.4737444 2.634536,7.5791059 2.5908935,7.6844678 2.5287521,7.7774692 2.4481115,7.8581104 2.367471,7.9387507 2.2744696,8.0008926 2.1691074,8.0445347 2.0637455,8.0881777 1.954043,8.1099987 1.84,8.1099997 H 0.86000001 C 0.7459569,8.1099987 0.63625431,8.0881777 0.53089225,8.0445347 0.42553014,8.0008926 0.3325288,7.9387512 0.25188816,7.8581114 0.17124751,7.7774701 0.10910599,7.6844687 0.0654636,7.5791068 0.0218212,7.4737444 0,7.3640423 0,7.2499995 V 0.86000001 C 0,0.7459569 0.0218212,0.63625431 0.0654636,0.53089225 0.10910599,0.42553014 0.17124751,0.3325288 0.25188816,0.25188816 0.3325288,0.17124751 0.42553014,0.10910599 0.53089225,0.0654636 0.63625431,0.0218212 0.7459569,0 0.86000001,0 Z" /></g><g
             transform="matrix(0,18.921211,-18.921211,0,1380.208,700.67236)"
             id="g116"><path
               id="path118"
               style="fill:#004aad;fill-opacity:1;fill-rule:evenodd;stroke:none"
               d="M 0,0 H 2.7 V 8.1099997 H 0 Z" /></g><g
             transform="matrix(18.921211,0,0,18.921211,670.20837,358.46338)"
             id="g120"><path
               id="path122"
               style="fill:#004aad;fill-opacity:1;fill-rule:evenodd;stroke:none"
               d="m 37.029999,15.38 h 0.979999 c 0.114041,0 0.223744,0.02182 0.329106,0.06546 0.105362,0.04364 0.198364,0.105786 0.279007,0.186426 0.08064,0.08064 0.14278,0.173642 0.18642,0.279003 0.04364,0.105362 0.06546,0.215066 0.06547,0.32911 v 6.389999 c -4e-6,0.114042 -0.02182,0.223744 -0.06546,0.329106 -0.04364,0.105361 -0.105785,0.198364 -0.186424,0.279005 -0.08064,0.08064 -0.173645,0.14278 -0.279007,0.186422 -0.105362,0.04364 -0.215065,0.06547 -0.329106,0.06547 h -0.979999 c -0.114048,-2e-6 -0.223751,-0.02182 -0.329109,-0.06547 -0.105366,-0.04364 -0.198368,-0.105784 -0.279007,-0.186424 -0.08064,-0.08064 -0.142784,-0.173644 -0.186425,-0.279007 -0.04364,-0.10536 -0.06546,-0.215062 -0.06546,-0.329104 v -6.389999 c -4e-6,-0.114044 0.02182,-0.223748 0.06546,-0.329108 0.04364,-0.105363 0.105782,-0.198365 0.186425,-0.279005 0.08064,-0.08064 0.173641,-0.142782 0.279007,-0.186425 0.105358,-0.04364 0.215061,-0.06546 0.329109,-0.06546 z" /></g><g
             transform="matrix(-13.379317,13.379317,-13.379317,-13.379317,1298.0564,950.11957)"
             id="g124"><path
               id="path126"
               style="fill:#004aad;fill-opacity:1;fill-rule:evenodd;stroke:none"
               d="M 0,0 H 2.7 V 8.1099997 H 0 Z" /></g><g
             transform="matrix(-13.379317,-13.379317,13.379317,-13.379317,1243.7764,1040.5779)"
             id="g128"><path
               id="path130"
               style="fill:#7ed957;fill-opacity:1;fill-rule:evenodd;stroke:none"
               d="M 0.86000001,0 H 1.84 C 1.954043,0 2.0637455,0.0218212 2.1691074,0.0654636 2.2744696,0.10910599 2.367471,0.17124751 2.4481115,0.25188816 2.5287521,0.3325288 2.5908935,0.42553014 2.634536,0.53089225 2.6781785,0.63625431 2.6999998,0.7459569 2.7,0.86000001 V 7.2499995 C 2.6999998,7.3640423 2.678178,7.4737444 2.634536,7.5791059 2.5908935,7.6844678 2.5287521,7.7774692 2.4481115,7.8581104 2.367471,7.9387507 2.2744696,8.0008926 2.1691074,8.0445347 2.0637455,8.0881777 1.954043,8.1099987 1.84,8.1099997 H 0.86000001 C 0.7459569,8.1099987 0.63625431,8.0881777 0.53089225,8.0445347 0.42553014,8.0008926 0.3325288,7.9387512 0.25188816,7.8581114 0.17124751,7.7774701 0.10910599,7.6844687 0.0654636,7.5791068 0.0218212,7.4737444 0,7.3640423 0,7.2499995 V 0.86000001 C 0,0.7459569 0.0218212,0.63625431 0.0654636,0.53089225 0.10910599,0.42553014 0.17124751,0.3325288 0.25188816,0.25188816 0.3325288,0.17124751 0.42553014,0.10910599 0.53089225,0.0654636 0.63625431,0.0218212 0.7459569,0 0.86000001,0 Z" /></g><g
             transform="matrix(18.921211,0,0,18.921211,670.20837,358.46338)"
             id="g132"><path
               id="path134"
               style="fill:#004aad;fill-opacity:1;fill-rule:evenodd;stroke:none"
               d="m 18.09,29.41 h 2.700001 v 8.110001 H 18.09 Z" /></g><g
             transform="matrix(0,-18.921211,18.921211,0,961.23553,1094.0254)"
             id="g136"><path
               id="path138"
               style="fill:#004aad;fill-opacity:1;fill-rule:evenodd;stroke:none"
               d="M 0.86000001,0 H 1.84 C 1.954043,0 2.0637455,0.0218212 2.1691074,0.0654636 2.2744696,0.10910599 2.367471,0.17124751 2.4481115,0.25188816 2.5287521,0.3325288 2.5908935,0.42553014 2.634536,0.53089225 2.6781785,0.63625431 2.6999998,0.7459569 2.7,0.86000001 V 7.2499995 C 2.6999998,7.3640423 2.678178,7.4737444 2.634536,7.5791059 2.5908935,7.6844678 2.5287521,7.7774692 2.4481115,7.8581104 2.367471,7.9387507 2.2744696,8.0008926 2.1691074,8.0445347 2.0637455,8.0881777 1.954043,8.1099987 1.84,8.1099997 H 0.86000001 C 0.7459569,8.1099987 0.63625431,8.0881777 0.53089225,8.0445347 0.42553014,8.0008926 0.3325288,7.9387512 0.25188816,7.8581114 0.17124751,7.7774701 0.10910599,7.6844687 0.0654636,7.5791068 0.0218212,7.4737444 0,7.3640423 0,7.2499995 V 0.86000001 C 0,0.7459569 0.0218212,0.63625431 0.0654636,0.53089225 0.10910599,0.42553014 0.17124751,0.3325288 0.25188816,0.25188816 0.3325288,0.17124751 0.42553014,0.10910599 0.53089225,0.0654636 0.63625431,0.0218212 0.7459569,0 0.86000001,0 Z" /></g><g
             transform="matrix(-13.379317,-13.379317,13.379317,-13.379317,814.11267,986.31232)"
             id="g140"><path
               id="path142"
               style="fill:#004aad;fill-opacity:1;fill-rule:evenodd;stroke:none"
               d="M 0,0 H 2.7 V 8.1099997 H 0 Z" /></g><g
             transform="matrix(13.379317,-13.379317,13.379317,13.379317,723.66125,932.04498)"
             id="g144"><path
               id="path146"
               style="fill:#7ed957;fill-opacity:1;fill-rule:evenodd;stroke:none"
               d="M 0.86000001,0 H 1.84 C 1.954043,0 2.0637455,0.0218212 2.1691074,0.0654636 2.2744696,0.10910599 2.367471,0.17124751 2.4481115,0.25188816 2.5287521,0.3325288 2.5908935,0.42553014 2.634536,0.53089225 2.6781785,0.63625431 2.6999998,0.7459569 2.7,0.86000001 V 7.2499995 C 2.6999998,7.3640423 2.678178,7.4737444 2.634536,7.5791059 2.5908935,7.6844678 2.5287521,7.7774692 2.4481115,7.8581104 2.367471,7.9387507 2.2744696,8.0008926 2.1691074,8.0445347 2.0637455,8.0881777 1.954043,8.1099987 1.84,8.1099997 H 0.86000001 C 0.7459569,8.1099987 0.63625431,8.0881777 0.53089225,8.0445347 0.42553014,8.0008926 0.3325288,7.9387512 0.25188816,7.8581114 0.17124751,7.7774701 0.10910599,7.6844687 0.0654636,7.5791068 0.0218212,7.4737444 0,7.3640423 0,7.2499995 V 0.86000001 C 0,0.7459569 0.0218212,0.63625431 0.0654636,0.53089225 0.10910599,0.42553014 0.17124751,0.3325288 0.25188816,0.25188816 0.3325288,0.17124751 0.42553014,0.10910599 0.53089225,0.0654636 0.63625431,0.0218212 0.7459569,0 0.86000001,0 Z" /></g><g
             transform="matrix(0,-18.921211,18.921211,0,695.78986,751.83533)"
             id="g148"><path
               id="path150"
               style="fill:#004aad;fill-opacity:1;fill-rule:evenodd;stroke:none"
               d="M 0,0 H 2.7 V 8.1099997 H 0 Z" /></g><g
             transform="matrix(18.921211,0,0,18.921211,670.20837,358.46338)"
             id="g152"><path
               id="path154"
               style="fill:#004aad;fill-opacity:1;fill-rule:evenodd;stroke:none"
               d="M 0.86000001,15.38 H 1.84 c 0.114043,0 0.2237455,0.02182 0.3291074,0.06546 0.1053622,0.04364 0.1983636,0.105786 0.2790041,0.186426 0.080641,0.08064 0.142782,0.173642 0.1864245,0.279003 C 2.6781785,16.016252 2.6999998,16.125956 2.7,16.24 v 6.389999 c -2e-7,0.114042 -0.021822,0.223744 -0.065464,0.329106 -0.043643,0.105361 -0.1057839,0.198364 -0.1864245,0.279005 -0.08064,0.08064 -0.1736419,0.14278 -0.2790041,0.186422 C 2.0637455,23.468176 1.954043,23.489998 1.84,23.49 H 0.86000001 C 0.7459569,23.489998 0.63625431,23.46818 0.53089225,23.42453 0.42553014,23.380892 0.3325288,23.31875 0.25188816,23.23811 0.17124751,23.157469 0.10910599,23.064466 0.0654636,22.959103 0.0218212,22.853743 0,22.744041 0,22.629999 V 16.24 C 0,16.125956 0.0218212,16.016252 0.0654636,15.910892 0.10910599,15.805529 0.17124751,15.712527 0.25188816,15.631887 0.3325288,15.551247 0.42553014,15.489105 0.53089225,15.445462 0.63625431,15.401821 0.7459569,15.38 0.86000001,15.38 Z" /></g><g
             transform="matrix(13.379317,-13.379317,13.379317,13.379317,777.93524,502.36282)"
             id="g156"><path
               id="path158"
               style="fill:#004aad;fill-opacity:1;fill-rule:evenodd;stroke:none"
               d="M 0,0 H 2.7 V 8.1099997 H 0 Z" /></g><g
             transform="matrix(13.379317,13.379317,-13.379317,13.379317,832.20221,411.91061)"
             id="g160"><path
               id="path162"
               style="fill:#7ed957;fill-opacity:1;fill-rule:evenodd;stroke:none"
               d="M 0.86000001,0 H 1.84 C 1.954043,0 2.0637455,0.0218212 2.1691074,0.0654636 2.2744696,0.10910599 2.367471,0.17124751 2.4481115,0.25188816 2.5287521,0.3325288 2.5908935,0.42553014 2.634536,0.53089225 2.6781785,0.63625431 2.6999998,0.7459569 2.7,0.86000001 V 7.2499995 C 2.6999998,7.3640423 2.678178,7.4737444 2.634536,7.5791059 2.5908935,7.6844678 2.5287521,7.7774692 2.4481115,7.8581104 2.367471,7.9387507 2.2744696,8.0008926 2.1691074,8.0445347 2.0637455,8.0881777 1.954043,8.1099987 1.84,8.1099997 H 0.86000001 C 0.7459569,8.1099987 0.63625431,8.0881777 0.53089225,8.0445347 0.42553014,8.0008926 0.3325288,7.9387512 0.25188816,7.8581114 0.17124751,7.7774701 0.10910599,7.6844687 0.0654636,7.5791068 0.0218212,7.4737444 0,7.3640423 0,7.2499995 V 0.86000001 C 0,0.7459569 0.0218212,0.63625431 0.0654636,0.53089225 0.10910599,0.42553014 0.17124751,0.3325288 0.25188816,0.25188816 0.3325288,0.17124751 0.42553014,0.10910599 0.53089225,0.0654636 0.63625431,0.0218212 0.7459569,0 0.86000001,0 Z" /></g><g
             transform="matrix(18.921211,0,0,18.921211,670.20837,358.46338)"
             id="g164"><path
               id="path166"
               style="fill:#7ed957;fill-opacity:1;fill-rule:nonzero;stroke:none"
               d="m 25.980001,12.24 c -1e-6,0.204861 -0.01999,0.407756 -0.05995,0.608681 -0.03997,0.200924 -0.09915,0.396021 -0.17755,0.585289 -0.0784,0.189268 -0.174503,0.36907 -0.288318,0.539406 -0.113814,0.170337 -0.243151,0.327935 -0.38801,0.472796 -0.144862,0.144858 -0.30246,0.274195 -0.472796,0.388011 -0.170338,0.113815 -0.350139,0.209922 -0.539408,0.288319 -0.189268,0.0784 -0.384363,0.137579 -0.585289,0.177547 -0.200923,0.03997 -0.403816,0.05995 -0.608678,0.05995 -0.204863,0 -0.407755,-0.01998 -0.608681,-0.05995 -0.200928,-0.03997 -0.396025,-0.09915 -0.585293,-0.177548 -0.189268,-0.0784 -0.36907,-0.174503 -0.539406,-0.288318 -0.170336,-0.113816 -0.327934,-0.243153 -0.472791,-0.388011 -0.14486,-0.144861 -0.274197,-0.302458 -0.388012,-0.472795 -0.113816,-0.170337 -0.209921,-0.35014 -0.288319,-0.539407 -0.0784,-0.189268 -0.137579,-0.384365 -0.177547,-0.585289 -0.03997,-0.200925 -0.05995,-0.40382 -0.05995,-0.608681 0,-0.204863 0.01998,-0.407757 0.05995,-0.608684 0.03997,-0.200926 0.09915,-0.396023 0.177545,-0.585291 0.0784,-0.189268 0.174503,-0.36907 0.288319,-0.539406 0.113813,-0.170337 0.24315,-0.327935 0.38801,-0.472793 0.144859,-0.1448604 0.302458,-0.2741977 0.472793,-0.388013 0.170336,-0.1138153 0.350138,-0.2099218 0.539406,-0.2883186 0.189268,-0.078397 0.384367,-0.1375781 0.585293,-0.1775446 0.200926,-0.039967 0.40382,-0.05995 0.608683,-0.05995 0.204862,0 0.407755,0.019983 0.60868,0.05995 0.200924,0.039967 0.396019,0.099148 0.585287,0.1775446 0.189269,0.078397 0.36907,0.1745033 0.539406,0.2883195 0.170338,0.1138163 0.327936,0.2431536 0.472798,0.3880131 0.144859,0.144859 0.274196,0.302457 0.38801,0.472793 0.113817,0.170336 0.209922,0.350138 0.28832,0.539405 0.0784,0.189268 0.137581,0.384365 0.177548,0.585292 0.03997,0.200926 0.05995,0.40382 0.05995,0.608683 z" /><path
               id="path168"
               style="fill:#7ed957;fill-opacity:1;fill-rule:evenodd;stroke:none"
               d="m 24.85,15.25 c -0.569999,0.67 -1.42,1.09 -2.37,1.09 -1.73,0 -3.119999,-1.39 -3.119999,-3.12 0,-0.03 0,-0.06 0,-0.09 0.399999,1.560001 1.809999,2.72 3.5,2.72 0.729999,0 1.42,-0.22 1.989999,-0.6 z" /></g><g
             transform="matrix(7.2879777,-12.623148,12.623148,7.2879777,893.07275,711.15527)"
             id="g170"><path
               id="path172"
               style="fill:#7ed957;fill-opacity:1;fill-rule:nonzero;stroke:none"
               d="m 3.3299999,0 c 0,0.21865088 -0.021328,0.43520111 -0.063985,0.64965069 C 3.2233582,0.86410022 3.1601927,1.0723286 3.0765188,1.2743356 2.9928446,1.4763428 2.8902695,1.6682471 2.7687938,1.8500488 2.6473176,2.0318503 2.509275,2.2000561 2.3546655,2.3546655 2.2000561,2.509275 2.0318503,2.6473176 1.8500488,2.7687936 1.6682471,2.8902695 1.4763428,2.9928443 1.2743356,3.0765185 1.0723286,3.1601925 0.86410022,3.2233579 0.64965069,3.2660148 0.43520111,3.3086715 0.21865088,3.3299999 0,3.3299999 c -0.21865088,0 -0.43520111,-0.021328 -0.64965069,-0.063985 C -0.86410022,3.2233582 -1.0723286,3.1601927 -1.2743356,3.0765188 -1.4763428,2.9928446 -1.6682471,2.8902695 -1.8500488,2.7687938 -2.0318503,2.6473176 -2.2000561,2.509275 -2.3546655,2.3546655 -2.509275,2.2000561 -2.6473176,2.0318503 -2.7687936,1.8500488 -2.8902695,1.6682471 -2.9928443,1.4763428 -3.0765185,1.2743356 -3.1601925,1.0723286 -3.2233579,0.86410022 -3.2660148,0.64965069 -3.3086715,0.43520111 -3.3299999,0.21865088 -3.3299999,0 c 0,-0.21865088 0.021328,-0.43520111 0.063985,-0.64965069 0.042657,-0.21444953 0.1058224,-0.42267791 0.1894963,-0.62468491 0.083674,-0.2020072 0.1862493,-0.3939115 0.307725,-0.5757132 0.1214762,-0.1818015 0.2595188,-0.3500073 0.4141283,-0.5046167 0.1546094,-0.1546095 0.3228152,-0.2926521 0.5046167,-0.4141281 0.1818017,-0.1214759 0.373706,-0.2240507 0.5757132,-0.3077249 0.202007,-0.083674 0.41023538,-0.1468394 0.62468491,-0.1894963 0.21444958,-0.042657 0.43099981,-0.063985 0.64965069,-0.063985 0.21865088,0 0.43520111,0.021328 0.64965069,0.063985 0.21444953,0.042657 0.42267791,0.1058224 0.62468491,0.1894963 0.2020072,0.083674 0.3939115,0.1862493 0.5757132,0.307725 0.1818015,0.1214762 0.3500073,0.2595188 0.5046167,0.4141283 0.1546095,0.1546094 0.2926521,0.3228152 0.4141281,0.5046167 0.1214759,0.1818017 0.2240507,0.373706 0.3077249,0.5757132 0.083674,0.202007 0.1468394,0.41023538 0.1894963,0.62468491 C 3.3086715,-0.43520111 3.3299999,-0.21865088 3.3299999,0 Z" /></g><g
             transform="matrix(18.921211,0,0,18.921211,670.20837,358.46338)"
             id="g174"><path
               id="path176"
               style="fill:#7ed957;fill-opacity:1;fill-rule:evenodd;stroke:none"
               d="m 14.74,18.459999 c 0.24,0.68 0.189999,1.459999 -0.2,2.139999 -0.7,1.22 -2.269999,1.64 -3.5,0.940001 -0.02,-0.02 -0.04,-0.03 -0.06,-0.04 C 12.25,21.86 13.66,21.319999 14.349999,20.12 14.65,19.599999 14.78,19.02 14.74,18.459999 Z" /></g><g
             transform="matrix(13.040998,7.529223,-7.529223,13.040998,1153.2144,836.61267)"
             id="g178"><path
               id="path180"
               style="fill:#7ed957;fill-opacity:1;fill-rule:nonzero;stroke:none"
               d="m 3.3299999,0 c 0,0.21865088 -0.021328,0.43520111 -0.063985,0.64965069 C 3.2233582,0.86410022 3.1601927,1.0723286 3.0765188,1.2743356 2.9928446,1.4763428 2.8902695,1.6682471 2.7687938,1.8500488 2.6473176,2.0318503 2.509275,2.2000561 2.3546655,2.3546655 2.2000561,2.509275 2.0318503,2.6473176 1.8500488,2.7687936 1.6682471,2.8902695 1.4763428,2.9928443 1.2743356,3.0765185 1.0723286,3.1601925 0.86410022,3.2233579 0.64965069,3.2660148 0.43520111,3.3086715 0.21865088,3.3299999 0,3.3299999 c -0.21865088,0 -0.43520111,-0.021328 -0.64965069,-0.063985 C -0.86410022,3.2233582 -1.0723286,3.1601927 -1.2743356,3.0765188 -1.4763428,2.9928446 -1.6682471,2.8902695 -1.8500488,2.7687938 -2.0318503,2.6473176 -2.2000561,2.509275 -2.3546655,2.3546655 -2.509275,2.2000561 -2.6473176,2.0318503 -2.7687936,1.8500488 -2.8902695,1.6682471 -2.9928443,1.4763428 -3.0765185,1.2743356 -3.1601925,1.0723286 -3.2233579,0.86410022 -3.2660148,0.64965069 -3.3086715,0.43520111 -3.3299999,0.21865088 -3.3299999,0 c 0,-0.21865088 0.021328,-0.43520111 0.063985,-0.64965069 0.042657,-0.21444953 0.1058224,-0.42267791 0.1894963,-0.62468491 0.083674,-0.2020072 0.1862493,-0.3939115 0.307725,-0.5757132 0.1214762,-0.1818015 0.2595188,-0.3500073 0.4141283,-0.5046167 0.1546094,-0.1546095 0.3228152,-0.2926521 0.5046167,-0.4141281 0.1818017,-0.1214759 0.373706,-0.2240507 0.5757132,-0.3077249 0.202007,-0.083674 0.41023538,-0.1468394 0.62468491,-0.1894963 0.21444958,-0.042657 0.43099981,-0.063985 0.64965069,-0.063985 0.21865088,0 0.43520111,0.021328 0.64965069,0.063985 0.21444953,0.042657 0.42267791,0.1058224 0.62468491,0.1894963 0.2020072,0.083674 0.3939115,0.1862493 0.5757132,0.307725 0.1818015,0.1214762 0.3500073,0.2595188 0.5046167,0.4141283 0.1546095,0.1546094 0.2926521,0.3228152 0.4141281,0.5046167 0.1214759,0.1818017 0.2240507,0.373706 0.3077249,0.5757132 0.083674,0.202007 0.1468394,0.41023538 0.1894963,0.62468491 C 3.3086715,-0.43520111 3.3299999,-0.21865088 3.3299999,0 Z" /></g><g
             transform="matrix(18.921211,0,0,18.921211,670.20837,358.46338)"
             id="g182"><path
               id="path184"
               style="fill:#7ed957;fill-opacity:1;fill-rule:evenodd;stroke:none"
               d="m 25.719999,28.33 c -0.709999,0.25 -1.52,0.200001 -2.210001,-0.200001 -1.27,-0.729999 -1.709999,-2.35 -0.969999,-3.620001 0.01,-0.02 0.02,-0.04 0.04,-0.07 -0.370001,1.319999 0.18,2.77 1.41,3.479999 0.549999,0.32 1.149999,0.450001 1.729999,0.41 v 2e-6 z" /></g><g
             transform="matrix(3.144516,-5.4464617,5.4464617,3.144516,1227.9177,682.62341)"
             id="g186"><path
               id="path188"
               style="fill:#7ed957;fill-opacity:1;fill-rule:nonzero;stroke:none"
               d="m 3.3299999,0 c 0,0.21865088 -0.021328,0.43520111 -0.063985,0.64965069 C 3.2233582,0.86410022 3.1601927,1.0723286 3.0765188,1.2743356 2.9928446,1.4763428 2.8902695,1.6682471 2.7687938,1.8500488 2.6473176,2.0318503 2.509275,2.2000561 2.3546655,2.3546655 2.2000561,2.509275 2.0318503,2.6473176 1.8500488,2.7687936 1.6682471,2.8902695 1.4763428,2.9928443 1.2743356,3.0765185 1.0723286,3.1601925 0.86410022,3.2233579 0.64965069,3.2660148 0.43520111,3.3086715 0.21865088,3.3299999 0,3.3299999 c -0.21865088,0 -0.43520111,-0.021328 -0.64965069,-0.063985 C -0.86410022,3.2233582 -1.0723286,3.1601927 -1.2743356,3.0765188 -1.4763428,2.9928446 -1.6682471,2.8902695 -1.8500488,2.7687938 -2.0318503,2.6473176 -2.2000561,2.509275 -2.3546655,2.3546655 -2.509275,2.2000561 -2.6473176,2.0318503 -2.7687936,1.8500488 -2.8902695,1.6682471 -2.9928443,1.4763428 -3.0765185,1.2743356 -3.1601925,1.0723286 -3.2233579,0.86410022 -3.2660148,0.64965069 -3.3086715,0.43520111 -3.3299999,0.21865088 -3.3299999,0 c 0,-0.21865088 0.021328,-0.43520111 0.063985,-0.64965069 0.042657,-0.21444953 0.1058224,-0.42267791 0.1894963,-0.62468491 0.083674,-0.2020072 0.1862493,-0.3939115 0.307725,-0.5757132 0.1214762,-0.1818015 0.2595188,-0.3500073 0.4141283,-0.5046167 0.1546094,-0.1546095 0.3228152,-0.2926521 0.5046167,-0.4141281 0.1818017,-0.1214759 0.373706,-0.2240507 0.5757132,-0.3077249 0.202007,-0.083674 0.41023538,-0.1468394 0.62468491,-0.1894963 0.21444958,-0.042657 0.43099981,-0.063985 0.64965069,-0.063985 0.21865088,0 0.43520111,0.021328 0.64965069,0.063985 0.21444953,0.042657 0.42267791,0.1058224 0.62468491,0.1894963 0.2020072,0.083674 0.3939115,0.1862493 0.5757132,0.307725 0.1818015,0.1214762 0.3500073,0.2595188 0.5046167,0.4141283 0.1546095,0.1546094 0.2926521,0.3228152 0.4141281,0.5046167 0.1214759,0.1818017 0.2240507,0.373706 0.3077249,0.5757132 0.083674,0.202007 0.1468394,0.41023538 0.1894963,0.62468491 C 3.3086715,-0.43520111 3.3299999,-0.21865088 3.3299999,0 Z" /></g><g
             transform="matrix(3.144516,-5.4464617,5.4464617,3.144516,1147.1643,731.80261)"
             id="g190"><path
               id="path192"
               style="fill:#ffffff;fill-opacity:1;fill-rule:nonzero;stroke:none"
               d="m 3.3299999,0 c 0,0.21865088 -0.021328,0.43520111 -0.063985,0.64965069 C 3.2233582,0.86410022 3.1601927,1.0723286 3.0765188,1.2743356 2.9928446,1.4763428 2.8902695,1.6682471 2.7687938,1.8500488 2.6473176,2.0318503 2.509275,2.2000561 2.3546655,2.3546655 2.2000561,2.509275 2.0318503,2.6473176 1.8500488,2.7687936 1.6682471,2.8902695 1.4763428,2.9928443 1.2743356,3.0765185 1.0723286,3.1601925 0.86410022,3.2233579 0.64965069,3.2660148 0.43520111,3.3086715 0.21865088,3.3299999 0,3.3299999 c -0.21865088,0 -0.43520111,-0.021328 -0.64965069,-0.063985 C -0.86410022,3.2233582 -1.0723286,3.1601927 -1.2743356,3.0765188 -1.4763428,2.9928446 -1.6682471,2.8902695 -1.8500488,2.7687938 -2.0318503,2.6473176 -2.2000561,2.509275 -2.3546655,2.3546655 -2.509275,2.2000561 -2.6473176,2.0318503 -2.7687936,1.8500488 -2.8902695,1.6682471 -2.9928443,1.4763428 -3.0765185,1.2743356 -3.1601925,1.0723286 -3.2233579,0.86410022 -3.2660148,0.64965069 -3.3086715,0.43520111 -3.3299999,0.21865088 -3.3299999,0 c 0,-0.21865088 0.021328,-0.43520111 0.063985,-0.64965069 0.042657,-0.21444953 0.1058224,-0.42267791 0.1894963,-0.62468491 0.083674,-0.2020072 0.1862493,-0.3939115 0.307725,-0.5757132 0.1214762,-0.1818015 0.2595188,-0.3500073 0.4141283,-0.5046167 0.1546094,-0.1546095 0.3228152,-0.2926521 0.5046167,-0.4141281 0.1818017,-0.1214759 0.373706,-0.2240507 0.5757132,-0.3077249 0.202007,-0.083674 0.41023538,-0.1468394 0.62468491,-0.1894963 0.21444958,-0.042657 0.43099981,-0.063985 0.64965069,-0.063985 0.21865088,0 0.43520111,0.021328 0.64965069,0.063985 0.21444953,0.042657 0.42267791,0.1058224 0.62468491,0.1894963 0.2020072,0.083674 0.3939115,0.1862493 0.5757132,0.307725 0.1818015,0.1214762 0.3500073,0.2595188 0.5046167,0.4141283 0.1546095,0.1546094 0.2926521,0.3228152 0.4141281,0.5046167 0.1214759,0.1818017 0.2240507,0.373706 0.3077249,0.5757132 0.083674,0.202007 0.1468394,0.41023538 0.1894963,0.62468491 C 3.3086715,-0.43520111 3.3299999,-0.21865088 3.3299999,0 Z" /></g><g
             transform="matrix(3.144516,-5.4464617,5.4464617,3.144516,944.76038,593.91138)"
             id="g194"><path
               id="path196"
               style="fill:#7ed957;fill-opacity:1;fill-rule:nonzero;stroke:none"
               d="m 3.3299999,0 c 0,0.21865088 -0.021328,0.43520111 -0.063985,0.64965069 C 3.2233582,0.86410022 3.1601927,1.0723286 3.0765188,1.2743356 2.9928446,1.4763428 2.8902695,1.6682471 2.7687938,1.8500488 2.6473176,2.0318503 2.509275,2.2000561 2.3546655,2.3546655 2.2000561,2.509275 2.0318503,2.6473176 1.8500488,2.7687936 1.6682471,2.8902695 1.4763428,2.9928443 1.2743356,3.0765185 1.0723286,3.1601925 0.86410022,3.2233579 0.64965069,3.2660148 0.43520111,3.3086715 0.21865088,3.3299999 0,3.3299999 c -0.21865088,0 -0.43520111,-0.021328 -0.64965069,-0.063985 C -0.86410022,3.2233582 -1.0723286,3.1601927 -1.2743356,3.0765188 -1.4763428,2.9928446 -1.6682471,2.8902695 -1.8500488,2.7687938 -2.0318503,2.6473176 -2.2000561,2.509275 -2.3546655,2.3546655 -2.509275,2.2000561 -2.6473176,2.0318503 -2.7687936,1.8500488 -2.8902695,1.6682471 -2.9928443,1.4763428 -3.0765185,1.2743356 -3.1601925,1.0723286 -3.2233579,0.86410022 -3.2660148,0.64965069 -3.3086715,0.43520111 -3.3299999,0.21865088 -3.3299999,0 c 0,-0.21865088 0.021328,-0.43520111 0.063985,-0.64965069 0.042657,-0.21444953 0.1058224,-0.42267791 0.1894963,-0.62468491 0.083674,-0.2020072 0.1862493,-0.3939115 0.307725,-0.5757132 0.1214762,-0.1818015 0.2595188,-0.3500073 0.4141283,-0.5046167 0.1546094,-0.1546095 0.3228152,-0.2926521 0.5046167,-0.4141281 0.1818017,-0.1214759 0.373706,-0.2240507 0.5757132,-0.3077249 0.202007,-0.083674 0.41023538,-0.1468394 0.62468491,-0.1894963 0.21444958,-0.042657 0.43099981,-0.063985 0.64965069,-0.063985 0.21865088,0 0.43520111,0.021328 0.64965069,0.063985 0.21444953,0.042657 0.42267791,0.1058224 0.62468491,0.1894963 0.2020072,0.083674 0.3939115,0.1862493 0.5757132,0.307725 0.1818015,0.1214762 0.3500073,0.2595188 0.5046167,0.4141283 0.1546095,0.1546094 0.2926521,0.3228152 0.4141281,0.5046167 0.1214759,0.1818017 0.2240507,0.373706 0.3077249,0.5757132 0.083674,0.202007 0.1468394,0.41023538 0.1894963,0.62468491 C 3.3086715,-0.43520111 3.3299999,-0.21865088 3.3299999,0 Z" /></g><g
             transform="matrix(3.1447053,-5.4464712,5.4464712,3.1447053,996.2019,523.07788)"
             id="g198"><path
               id="path200"
               style="fill:#ffffff;fill-opacity:1;fill-rule:nonzero;stroke:none"
               d="m 3.3299999,0 c 0,0.21865088 -0.021328,0.43520111 -0.063985,0.64965069 C 3.2233582,0.86410022 3.1601927,1.0723286 3.0765188,1.2743356 2.9928446,1.4763428 2.8902695,1.6682471 2.7687938,1.8500488 2.6473176,2.0318503 2.509275,2.2000561 2.3546655,2.3546655 2.2000561,2.509275 2.0318503,2.6473176 1.8500488,2.7687936 1.6682471,2.8902695 1.4763428,2.9928443 1.2743356,3.0765185 1.0723286,3.1601925 0.86410022,3.2233579 0.64965069,3.2660148 0.43520111,3.3086715 0.21865088,3.3299999 0,3.3299999 c -0.21865088,0 -0.43520111,-0.021328 -0.64965069,-0.063985 C -0.86410022,3.2233582 -1.0723286,3.1601927 -1.2743356,3.0765188 -1.4763428,2.9928446 -1.6682471,2.8902695 -1.8500488,2.7687938 -2.0318503,2.6473176 -2.2000561,2.509275 -2.3546655,2.3546655 -2.509275,2.2000561 -2.6473176,2.0318503 -2.7687936,1.8500488 -2.8902695,1.6682471 -2.9928443,1.4763428 -3.0765185,1.2743356 -3.1601925,1.0723286 -3.2233579,0.86410022 -3.2660148,0.64965069 -3.3086715,0.43520111 -3.3299999,0.21865088 -3.3299999,0 c 0,-0.21865088 0.021328,-0.43520111 0.063985,-0.64965069 0.042657,-0.21444953 0.1058224,-0.42267791 0.1894963,-0.62468491 0.083674,-0.2020072 0.1862493,-0.3939115 0.307725,-0.5757132 0.1214762,-0.1818015 0.2595188,-0.3500073 0.4141283,-0.5046167 0.1546094,-0.1546095 0.3228152,-0.2926521 0.5046167,-0.4141281 0.1818017,-0.1214759 0.373706,-0.2240507 0.5757132,-0.3077249 0.202007,-0.083674 0.41023538,-0.1468394 0.62468491,-0.1894963 0.21444958,-0.042657 0.43099981,-0.063985 0.64965069,-0.063985 0.21865088,0 0.43520111,0.021328 0.64965069,0.063985 0.21444953,0.042657 0.42267791,0.1058224 0.62468491,0.1894963 0.2020072,0.083674 0.3939115,0.1862493 0.5757132,0.307725 0.1818015,0.1214762 0.3500073,0.2595188 0.5046167,0.4141283 0.1546095,0.1546094 0.2926521,0.3228152 0.4141281,0.5046167 0.1214759,0.1818017 0.2240507,0.373706 0.3077249,0.5757132 0.083674,0.202007 0.1468394,0.41023538 0.1894963,0.62468491 C 3.3086715,-0.43520111 3.3299999,-0.21865088 3.3299999,0 Z" /></g><g
             transform="matrix(3.144516,-5.4464617,5.4464617,3.144516,927.09082,877.80859)"
             id="g202"><path
               id="path204"
               style="fill:#7ed957;fill-opacity:1;fill-rule:nonzero;stroke:none"
               d="m 3.3299999,0 c 0,0.21865088 -0.021328,0.43520111 -0.063985,0.64965069 C 3.2233582,0.86410022 3.1601927,1.0723286 3.0765188,1.2743356 2.9928446,1.4763428 2.8902695,1.6682471 2.7687938,1.8500488 2.6473176,2.0318503 2.509275,2.2000561 2.3546655,2.3546655 2.2000561,2.509275 2.0318503,2.6473176 1.8500488,2.7687936 1.6682471,2.8902695 1.4763428,2.9928443 1.2743356,3.0765185 1.0723286,3.1601925 0.86410022,3.2233579 0.64965069,3.2660148 0.43520111,3.3086715 0.21865088,3.3299999 0,3.3299999 c -0.21865088,0 -0.43520111,-0.021328 -0.64965069,-0.063985 C -0.86410022,3.2233582 -1.0723286,3.1601927 -1.2743356,3.0765188 -1.4763428,2.9928446 -1.6682471,2.8902695 -1.8500488,2.7687938 -2.0318503,2.6473176 -2.2000561,2.509275 -2.3546655,2.3546655 -2.509275,2.2000561 -2.6473176,2.0318503 -2.7687936,1.8500488 -2.8902695,1.6682471 -2.9928443,1.4763428 -3.0765185,1.2743356 -3.1601925,1.0723286 -3.2233579,0.86410022 -3.2660148,0.64965069 -3.3086715,0.43520111 -3.3299999,0.21865088 -3.3299999,0 c 0,-0.21865088 0.021328,-0.43520111 0.063985,-0.64965069 0.042657,-0.21444953 0.1058224,-0.42267791 0.1894963,-0.62468491 0.083674,-0.2020072 0.1862493,-0.3939115 0.307725,-0.5757132 0.1214762,-0.1818015 0.2595188,-0.3500073 0.4141283,-0.5046167 0.1546094,-0.1546095 0.3228152,-0.2926521 0.5046167,-0.4141281 0.1818017,-0.1214759 0.373706,-0.2240507 0.5757132,-0.3077249 0.202007,-0.083674 0.41023538,-0.1468394 0.62468491,-0.1894963 0.21444958,-0.042657 0.43099981,-0.063985 0.64965069,-0.063985 0.21865088,0 0.43520111,0.021328 0.64965069,0.063985 0.21444953,0.042657 0.42267791,0.1058224 0.62468491,0.1894963 0.2020072,0.083674 0.3939115,0.1862493 0.5757132,0.307725 0.1818015,0.1214762 0.3500073,0.2595188 0.5046167,0.4141283 0.1546095,0.1546094 0.2926521,0.3228152 0.4141281,0.5046167 0.1214759,0.1818017 0.2240507,0.373706 0.3077249,0.5757132 0.083674,0.202007 0.1468394,0.41023538 0.1894963,0.62468491 C 3.3086715,-0.43520111 3.3299999,-0.21865088 3.3299999,0 Z" /></g><g
             transform="matrix(3.144516,-5.4464617,5.4464617,3.144516,1013.4042,770.90387)"
             id="g206"><path
               id="path208"
               style="fill:#ffffff;fill-opacity:1;fill-rule:nonzero;stroke:none"
               d="m 3.3299999,0 c 0,0.21865088 -0.021328,0.43520111 -0.063985,0.64965069 C 3.2233582,0.86410022 3.1601927,1.0723286 3.0765188,1.2743356 2.9928446,1.4763428 2.8902695,1.6682471 2.7687938,1.8500488 2.6473176,2.0318503 2.509275,2.2000561 2.3546655,2.3546655 2.2000561,2.509275 2.0318503,2.6473176 1.8500488,2.7687936 1.6682471,2.8902695 1.4763428,2.9928443 1.2743356,3.0765185 1.0723286,3.1601925 0.86410022,3.2233579 0.64965069,3.2660148 0.43520111,3.3086715 0.21865088,3.3299999 0,3.3299999 c -0.21865088,0 -0.43520111,-0.021328 -0.64965069,-0.063985 C -0.86410022,3.2233582 -1.0723286,3.1601927 -1.2743356,3.0765188 -1.4763428,2.9928446 -1.6682471,2.8902695 -1.8500488,2.7687938 -2.0318503,2.6473176 -2.2000561,2.509275 -2.3546655,2.3546655 -2.509275,2.2000561 -2.6473176,2.0318503 -2.7687936,1.8500488 -2.8902695,1.6682471 -2.9928443,1.4763428 -3.0765185,1.2743356 -3.1601925,1.0723286 -3.2233579,0.86410022 -3.2660148,0.64965069 -3.3086715,0.43520111 -3.3299999,0.21865088 -3.3299999,0 c 0,-0.21865088 0.021328,-0.43520111 0.063985,-0.64965069 0.042657,-0.21444953 0.1058224,-0.42267791 0.1894963,-0.62468491 0.083674,-0.2020072 0.1862493,-0.3939115 0.307725,-0.5757132 0.1214762,-0.1818015 0.2595188,-0.3500073 0.4141283,-0.5046167 0.1546094,-0.1546095 0.3228152,-0.2926521 0.5046167,-0.4141281 0.1818017,-0.1214759 0.373706,-0.2240507 0.5757132,-0.3077249 0.202007,-0.083674 0.41023538,-0.1468394 0.62468491,-0.1894963 0.21444958,-0.042657 0.43099981,-0.063985 0.64965069,-0.063985 0.21865088,0 0.43520111,0.021328 0.64965069,0.063985 0.21444953,0.042657 0.42267791,0.1058224 0.62468491,0.1894963 0.2020072,0.083674 0.3939115,0.1862493 0.5757132,0.307725 0.1818015,0.1214762 0.3500073,0.2595188 0.5046167,0.4141283 0.1546095,0.1546094 0.2926521,0.3228152 0.4141281,0.5046167 0.1214759,0.1818017 0.2240507,0.373706 0.3077249,0.5757132 0.083674,0.202007 0.1468394,0.41023538 0.1894963,0.62468491 C 3.3086715,-0.43520111 3.3299999,-0.21865088 3.3299999,0 Z" /></g><g
             transform="matrix(3.144516,-5.4464617,5.4464617,3.144516,1050.5896,912.74158)"
             id="g210"><path
               id="path212"
               style="fill:#ffffff;fill-opacity:1;fill-rule:nonzero;stroke:none"
               d="m 3.3299999,0 c 0,0.21865088 -0.021328,0.43520111 -0.063985,0.64965069 C 3.2233582,0.86410022 3.1601927,1.0723286 3.0765188,1.2743356 2.9928446,1.4763428 2.8902695,1.6682471 2.7687938,1.8500488 2.6473176,2.0318503 2.509275,2.2000561 2.3546655,2.3546655 2.2000561,2.509275 2.0318503,2.6473176 1.8500488,2.7687936 1.6682471,2.8902695 1.4763428,2.9928443 1.2743356,3.0765185 1.0723286,3.1601925 0.86410022,3.2233579 0.64965069,3.2660148 0.43520111,3.3086715 0.21865088,3.3299999 0,3.3299999 c -0.21865088,0 -0.43520111,-0.021328 -0.64965069,-0.063985 C -0.86410022,3.2233582 -1.0723286,3.1601927 -1.2743356,3.0765188 -1.4763428,2.9928446 -1.6682471,2.8902695 -1.8500488,2.7687938 -2.0318503,2.6473176 -2.2000561,2.509275 -2.3546655,2.3546655 -2.509275,2.2000561 -2.6473176,2.0318503 -2.7687936,1.8500488 -2.8902695,1.6682471 -2.9928443,1.4763428 -3.0765185,1.2743356 -3.1601925,1.0723286 -3.2233579,0.86410022 -3.2660148,0.64965069 -3.3086715,0.43520111 -3.3299999,0.21865088 -3.3299999,0 c 0,-0.21865088 0.021328,-0.43520111 0.063985,-0.64965069 0.042657,-0.21444953 0.1058224,-0.42267791 0.1894963,-0.62468491 0.083674,-0.2020072 0.1862493,-0.3939115 0.307725,-0.5757132 0.1214762,-0.1818015 0.2595188,-0.3500073 0.4141283,-0.5046167 0.1546094,-0.1546095 0.3228152,-0.2926521 0.5046167,-0.4141281 0.1818017,-0.1214759 0.373706,-0.2240507 0.5757132,-0.3077249 0.202007,-0.083674 0.41023538,-0.1468394 0.62468491,-0.1894963 0.21444958,-0.042657 0.43099981,-0.063985 0.64965069,-0.063985 0.21865088,0 0.43520111,0.021328 0.64965069,0.063985 0.21444953,0.042657 0.42267791,0.1058224 0.62468491,0.1894963 0.2020072,0.083674 0.3939115,0.1862493 0.5757132,0.307725 0.1818015,0.1214762 0.3500073,0.2595188 0.5046167,0.4141283 0.1546095,0.1546094 0.2926521,0.3228152 0.4141281,0.5046167 0.1214759,0.1818017 0.2240507,0.373706 0.3077249,0.5757132 0.083674,0.202007 0.1468394,0.41023538 0.1894963,0.62468491 C 3.3086715,-0.43520111 3.3299999,-0.21865088 3.3299999,0 Z" /></g></g></g></g></g></svg>