<?xml version="1.0" encoding="UTF-8"?>
<svg id="Layer_1" data-name="Layer 1" xmlns="http://www.w3.org/2000/svg" xmlns:xlink="http://www.w3.org/1999/xlink" viewBox="0 0 350.51 350.51">
  <defs>
    <style>
      .cls-1, .cls-2 {
        fill-rule: evenodd;
      }

      .cls-1, .cls-3 {
        fill: #004aad;
      }

      .cls-4 {
        fill: #ffbd59;
      }

      .cls-5 {
        clip-path: url(#clippath-2);
      }

      .cls-5, .cls-6, .cls-7, .cls-8 {
        fill: none;
      }

      .cls-9 {
        fill: #fff;
      }

      .cls-10, .cls-2 {
        fill: #7ed957;
      }

      .cls-11 {
        font-family: FuturaPT-Book, 'Futura PT';
        font-size: 207.17px;
      }

      .cls-7 {
        clip-path: url(#clippath);
      }

      .cls-8 {
        clip-path: url(#clippath-1);
      }
    </style>
    <clipPath id="clippath">
      <rect class="cls-6" width="350.51" height="350.51"/>
    </clipPath>
    <clipPath id="clippath-1">
      <circle class="cls-6" cx="175.26" cy="175.26" r="175.26"/>
    </clipPath>
    <clipPath id="clippath-2">
      <rect class="cls-6" x="143.23" y="86.76" width="177" height="177"/>
    </clipPath>
  </defs>
  <g class="cls-7">
    <g class="cls-8">
      <rect class="cls-4" width="350.51" height="350.51"/>
    </g>
  </g>
  <g>
    <text class="cls-11" transform="translate(30.29 255.95)"><tspan x="0" y="0">K</tspan></text>
    <g class="cls-5">
      <path class="cls-3" d="m295.76,175.03c0,1.05-.03,2.1-.08,3.15-.05,1.05-.13,2.1-.23,3.15-.1,1.05-.23,2.09-.39,3.13-.15,1.04-.33,2.08-.54,3.11-.21,1.03-.44,2.06-.69,3.08-.26,1.02-.54,2.03-.84,3.04-.31,1.01-.64,2-.99,2.99-.35.99-.73,1.97-1.14,2.94-.4.97-.83,1.93-1.28,2.88-.45.95-.92,1.89-1.42,2.82-.5.93-1.01,1.84-1.55,2.74s-1.1,1.79-1.69,2.66c-.58.87-1.19,1.73-1.82,2.58s-1.27,1.67-1.94,2.49c-.67.81-1.35,1.61-2.06,2.39-.71.78-1.43,1.54-2.17,2.28s-1.51,1.47-2.28,2.17c-.78.71-1.58,1.39-2.39,2.06-.81.67-1.64,1.31-2.49,1.94-.84.63-1.7,1.23-2.58,1.82-.87.58-1.76,1.15-2.66,1.69-.9.54-1.82,1.06-2.74,1.55-.93.5-1.87.97-2.82,1.42-.95.45-1.91.88-2.88,1.28-.97.4-1.95.78-2.94,1.14-.99.35-1.99.68-2.99.99-1.01.31-2.02.59-3.04.84-1.02.26-2.05.49-3.08.69-1.03.21-2.07.38-3.11.54-1.04.15-2.08.28-3.13.39-1.05.1-2.1.18-3.15.23-1.05.05-2.1.08-3.15.08s-2.1-.03-3.15-.08-2.1-.13-3.15-.23c-1.05-.1-2.09-.23-3.13-.39-1.04-.15-2.08-.33-3.11-.54-1.03-.21-2.06-.44-3.08-.69-1.02-.26-2.03-.54-3.04-.84-1.01-.31-2-.64-2.99-.99-.99-.35-1.97-.73-2.94-1.14-.97-.4-1.93-.83-2.88-1.28-.95-.45-1.89-.92-2.82-1.42-.93-.5-1.84-1.01-2.74-1.55s-1.79-1.1-2.66-1.69c-.87-.58-1.73-1.19-2.58-1.82-.84-.63-1.67-1.27-2.49-1.94-.81-.67-1.61-1.35-2.39-2.06-.78-.71-1.54-1.43-2.28-2.17s-1.47-1.5-2.17-2.28c-.71-.78-1.39-1.58-2.06-2.39-.67-.81-1.31-1.64-1.94-2.49-.63-.84-1.23-1.7-1.82-2.58-.58-.87-1.15-1.76-1.69-2.66-.54-.9-1.06-1.82-1.55-2.74-.5-.93-.97-1.87-1.42-2.82-.45-.95-.88-1.91-1.28-2.88-.4-.97-.78-1.95-1.14-2.94-.35-.99-.68-1.99-.99-2.99-.31-1.01-.59-2.02-.84-3.04-.26-1.02-.49-2.05-.69-3.08s-.38-2.07-.54-3.11c-.15-1.04-.28-2.08-.39-3.13-.1-1.05-.18-2.09-.23-3.15-.05-1.05-.08-2.1-.08-3.15s.03-2.1.08-3.15c.05-1.05.13-2.1.23-3.15.1-1.05.23-2.09.39-3.13.15-1.04.33-2.08.54-3.11.21-1.03.44-2.06.69-3.08.26-1.02.54-2.03.84-3.04.31-1.01.64-2,.99-2.99s.73-1.97,1.14-2.94c.4-.97.83-1.93,1.28-2.88.45-.95.92-1.89,1.42-2.82.5-.93,1.01-1.84,1.55-2.74.54-.9,1.1-1.79,1.69-2.66.58-.87,1.19-1.73,1.82-2.58.63-.84,1.27-1.67,1.94-2.49.67-.81,1.35-1.61,2.06-2.39.71-.78,1.43-1.54,2.17-2.28.74-.74,1.5-1.47,2.28-2.17.78-.71,1.58-1.39,2.39-2.06.81-.67,1.64-1.31,2.49-1.94.84-.63,1.7-1.23,2.58-1.82.87-.58,1.76-1.15,2.66-1.69.9-.54,1.82-1.06,2.74-1.55.93-.5,1.87-.97,2.82-1.42.95-.45,1.91-.88,2.88-1.28.97-.4,1.95-.78,2.94-1.14.99-.35,1.99-.68,2.99-.99,1.01-.31,2.02-.59,3.04-.84,1.02-.26,2.05-.49,3.08-.69,1.03-.21,2.07-.38,3.11-.54s2.08-.28,3.13-.39c1.05-.1,2.09-.18,3.15-.23s2.1-.08,3.15-.08,2.1.03,3.15.08c1.05.05,2.1.13,3.15.23,1.05.1,2.09.23,3.13.39,1.04.15,2.08.33,3.11.54,1.03.21,2.06.44,3.08.69,1.02.26,2.03.54,3.04.84,1.01.31,2,.64,2.99.99.99.35,1.97.73,2.94,1.14.97.4,1.93.83,2.88,1.28.95.45,1.89.92,2.82,1.42.93.5,1.84,1.01,2.74,1.55.9.54,1.79,1.1,2.66,1.69.87.58,1.73,1.19,2.58,1.82.84.63,1.67,1.27,2.49,1.94.81.67,1.61,1.35,2.39,2.06.78.71,1.54,1.43,2.28,2.17.74.74,1.47,1.51,2.17,2.28.71.78,1.39,1.58,2.06,2.39s1.31,1.64,1.94,2.49c.63.84,1.23,1.7,1.82,2.58.58.87,1.15,1.76,1.69,2.66s1.06,1.82,1.55,2.74c.5.93.97,1.87,1.42,2.82.45.95.88,1.91,1.28,2.88.4.97.78,1.95,1.14,2.94.35.99.68,1.99.99,2.99.31,1.01.59,2.02.84,3.04.26,1.02.49,2.05.69,3.08.21,1.03.38,2.07.54,3.11.15,1.04.28,2.08.39,3.13.1,1.05.18,2.09.23,3.15.05,1.05.08,2.1.08,3.15Z"/>
      <rect class="cls-3" x="225.37" y="92.89" width="12.26" height="36.83"/>
      <path class="cls-1" d="m249.91,90.66v4.45c0,.52-.1,1.02-.3,1.49s-.48.9-.85,1.27-.79.65-1.27.85-.98.3-1.49.3h-29.02c-.52,0-1.02-.1-1.49-.3-.48-.2-.9-.48-1.27-.85-.37-.37-.65-.79-.85-1.27s-.3-.98-.3-1.49v-4.45c0-.52.1-1.02.3-1.49.2-.48.48-.9.85-1.27.37-.37.79-.65,1.27-.85.48-.2.98-.3,1.49-.3h29.02c.52,0,1.02.1,1.49.3s.9.48,1.27.85.65.79.85,1.27c.2.48.3.98.3,1.49Z"/>
      <rect class="cls-3" x="258.13" y="123.83" width="36.83" height="12.26" transform="translate(-10.9 233.61) rotate(-45)"/>
      <path class="cls-2" d="m304.17,128.4l-3.15,3.15c-.37.37-.79.65-1.27.85-.48.2-.98.3-1.49.3s-1.02-.1-1.49-.3c-.48-.2-.9-.48-1.27-.85l-20.52-20.52c-.37-.37-.65-.79-.85-1.27-.2-.48-.3-.98-.3-1.49s.1-1.02.3-1.49.48-.9.85-1.27l3.15-3.15c.37-.37.79-.65,1.27-.85.48-.2.98-.3,1.49-.3s1.02.1,1.49.3c.48.2.9.48,1.27.85l20.52,20.52c.37.37.65.79.85,1.27s.3.98.3,1.49-.1,1.02-.3,1.49-.48.9-.85,1.27Z"/>
      <rect class="cls-3" x="276.8" y="168.89" width="36.83" height="12.26"/>
      <path class="cls-1" d="m311.38,156.6h4.45c.52,0,1.02.1,1.49.3.48.2.9.48,1.27.85.37.37.65.79.85,1.27.2.48.3.98.3,1.49v29.02c0,.52-.1,1.02-.3,1.49-.2.48-.48.9-.85,1.27-.37.37-.79.65-1.27.85-.48.2-.98.3-1.49.3h-4.45c-.52,0-1.02-.1-1.49-.3-.48-.2-.9-.48-1.27-.85s-.65-.79-.85-1.27c-.2-.48-.3-.98-.3-1.49v-29.02c0-.52.1-1.02.3-1.49.2-.48.48-.9.85-1.27.37-.37.79-.65,1.27-.85.48-.2.98-.3,1.49-.3Z"/>
      <rect class="cls-3" x="270.42" y="201.65" width="12.26" height="36.83" transform="translate(-74.61 260.01) rotate(-45)"/>
      <path class="cls-2" d="m278.12,247.7l-3.15-3.15c-.37-.37-.65-.79-.85-1.27-.2-.48-.3-.98-.3-1.49s.1-1.02.3-1.49c.2-.48.48-.9.85-1.27l20.52-20.52c.37-.37.79-.65,1.27-.85.48-.2.98-.3,1.49-.3s1.02.1,1.49.3c.48.2.9.48,1.27.85l3.15,3.15c.37.37.65.79.85,1.27.2.48.3.98.3,1.49s-.1,1.02-.3,1.49c-.2.48-.48.9-.85,1.27l-20.52,20.52c-.37.37-.79.65-1.27.85-.48.2-.98.3-1.49.3s-1.02-.1-1.49-.3c-.48-.2-.9-.48-1.27-.85Z"/>
      <rect class="cls-3" x="225.37" y="220.31" width="12.26" height="36.83"/>
      <path class="cls-1" d="m213.07,259.39v-4.45c0-.52.1-1.02.3-1.49.2-.48.48-.9.85-1.27.37-.37.79-.65,1.27-.85.48-.2.98-.3,1.49-.3h29.02c.52,0,1.02.1,1.49.3.48.2.9.48,1.27.85.37.37.65.79.85,1.27.2.48.3.98.3,1.49v4.45c0,.52-.1,1.02-.3,1.49-.2.48-.48.9-.85,1.27-.37.37-.79.65-1.27.85-.48.2-.98.3-1.49.3h-29.02c-.52,0-1.02-.1-1.49-.3-.48-.2-.9-.48-1.27-.85-.37-.37-.65-.79-.85-1.27-.2-.48-.3-.98-.3-1.49Z"/>
      <rect class="cls-3" x="168.03" y="213.95" width="36.83" height="12.26" transform="translate(-101.01 196.3) rotate(-45)"/>
      <path class="cls-2" d="m158.82,221.65l3.15-3.15c.37-.37.79-.65,1.27-.85.48-.2.98-.3,1.49-.3s1.02.1,1.49.3c.48.2.9.48,1.27.85l20.52,20.52c.37.37.65.79.85,1.27.2.48.3.98.3,1.49,0,.52-.1,1.02-.3,1.49-.2.48-.48.9-.85,1.27l-3.15,3.15c-.37.37-.79.65-1.27.85-.48.2-.98.3-1.49.3s-1.02-.1-1.49-.3c-.48-.2-.9-.48-1.27-.85l-20.52-20.52c-.37-.37-.65-.79-.85-1.27-.2-.48-.3-.98-.3-1.49s.1-1.02.3-1.49c.2-.48.48-.9.85-1.27Z"/>
      <rect class="cls-3" x="149.37" y="168.9" width="36.83" height="12.26"/>
      <path class="cls-1" d="m147.13,156.6h4.45c.52,0,1.02.1,1.49.3.48.2.9.48,1.27.85.37.37.65.79.85,1.27.2.48.3.98.3,1.49v29.02c0,.52-.1,1.02-.3,1.49-.2.48-.48.9-.85,1.27s-.79.65-1.27.85c-.48.2-.98.3-1.49.3h-4.45c-.52,0-1.02-.1-1.49-.3-.48-.2-.9-.48-1.27-.85s-.65-.79-.85-1.27c-.2-.48-.3-.98-.3-1.49v-29.02c0-.52.1-1.02.3-1.49.2-.48.48-.9.85-1.27.37-.37.79-.65,1.27-.85.48-.2.98-.3,1.49-.3Z"/>
      <rect class="cls-3" x="180.31" y="111.56" width="12.26" height="36.83" transform="translate(-37.3 169.9) rotate(-45)"/>
      <path class="cls-2" d="m184.87,102.34l3.15,3.15c.37.37.65.79.85,1.27.2.48.3.98.3,1.49s-.1,1.02-.3,1.49c-.2.48-.48.9-.85,1.27l-20.52,20.52c-.37.37-.79.65-1.27.85-.48.2-.98.3-1.49.3s-1.02-.1-1.49-.3c-.48-.2-.9-.48-1.27-.85l-3.15-3.15c-.37-.37-.65-.79-.85-1.27-.2-.48-.3-.98-.3-1.49s.1-1.02.3-1.49c.2-.48.48-.9.85-1.27l20.52-20.52c.37-.37.79-.65,1.27-.85s.98-.3,1.49-.3,1.02.1,1.49.3c.48.2.9.48,1.27.85Z"/>
      <path class="cls-10" d="m261.2,142.34c0,.93-.09,1.85-.27,2.76-.18.91-.45,1.8-.81,2.66s-.79,1.68-1.31,2.45c-.52.77-1.1,1.49-1.76,2.15-.66.66-1.37,1.25-2.15,1.76-.77.52-1.59.95-2.45,1.31-.86.36-1.75.62-2.66.81-.91.18-1.83.27-2.76.27s-1.85-.09-2.76-.27c-.91-.18-1.8-.45-2.66-.81-.86-.36-1.68-.79-2.45-1.31-.77-.52-1.49-1.1-2.15-1.76-.66-.66-1.25-1.37-1.76-2.15-.52-.77-.95-1.59-1.31-2.45s-.62-1.75-.81-2.66c-.18-.91-.27-1.83-.27-2.76s.09-1.85.27-2.76c.18-.91.45-1.8.81-2.66s.79-1.68,1.31-2.45c.52-.77,1.1-1.49,1.76-2.15.66-.66,1.37-1.25,2.15-1.76.77-.52,1.59-.95,2.45-1.31.86-.36,1.75-.62,2.66-.81.91-.18,1.83-.27,2.76-.27s1.85.09,2.76.27c.91.18,1.8.45,2.66.81.86.36,1.68.79,2.45,1.31.77.52,1.49,1.1,2.15,1.76.66.66,1.25,1.37,1.76,2.15.52.77.95,1.59,1.31,2.45s.62,1.75.81,2.66c.18.91.27,1.83.27,2.76Z"/>
      <path class="cls-2" d="m256.07,156.01c-2.59,3.04-6.45,4.95-10.76,4.95-7.86,0-14.17-6.31-14.17-14.17v-.41c1.82,7.08,8.22,12.35,15.89,12.35,3.32,0,6.45-1,9.04-2.72Z"/>
      <path class="cls-10" d="m202.54,161.31c.66.38,1.28.83,1.86,1.33.58.5,1.1,1.06,1.56,1.67.47.61.87,1.25,1.21,1.94.34.69.61,1.4.8,2.14.2.74.32,1.49.37,2.25.05.76.03,1.52-.07,2.28s-.27,1.5-.52,2.22c-.25.72-.56,1.42-.94,2.08-.38.66-.83,1.28-1.33,1.86-.5.58-1.06,1.1-1.67,1.56s-1.25.87-1.94,1.21-1.4.61-2.14.8c-.74.2-1.49.32-2.25.37-.76.05-1.52.03-2.28-.07-.76-.1-1.5-.27-2.22-.52-.72-.25-1.42-.56-2.08-.94-.66-.38-1.28-.83-1.86-1.33-.58-.5-1.1-1.06-1.56-1.67-.47-.61-.87-1.25-1.21-1.94-.34-.69-.61-1.4-.8-2.14-.2-.74-.32-1.49-.37-2.25-.05-.76-.03-1.52.07-2.28s.27-1.5.52-2.22c.25-.72.56-1.42.94-2.08.38-.66.83-1.28,1.33-1.86.5-.58,1.06-1.1,1.67-1.56s1.25-.87,1.94-1.21c.69-.34,1.4-.61,2.14-.8.74-.2,1.49-.32,2.25-.37.76-.05,1.52-.03,2.28.07.76.1,1.5.27,2.22.52.72.25,1.42.56,2.08.94Z"/>
      <path class="cls-2" d="m210.16,170.58c1.09,3.09.86,6.63-.91,9.72-3.18,5.54-10.31,7.45-15.89,4.27-.09-.09-.18-.14-.27-.18,5.77,1.63,12.17-.82,15.3-6.27,1.36-2.36,1.95-5,1.77-7.54Z"/>
      <path class="cls-10" d="m269.57,207.53c-.4.68-.85,1.32-1.37,1.92-.52.59-1.1,1.13-1.72,1.61-.63.48-1.29.9-2,1.25s-1.44.63-2.21.83c-.76.2-1.54.33-2.33.38-.79.05-1.57.03-2.36-.08-.78-.1-1.55-.28-2.3-.54-.75-.25-1.46-.58-2.15-.97-.68-.4-1.32-.85-1.92-1.37-.59-.52-1.13-1.09-1.61-1.72-.48-.63-.9-1.29-1.25-2-.35-.71-.63-1.44-.83-2.21s-.33-1.54-.38-2.33c-.05-.79-.03-1.57.08-2.36.1-.78.28-1.55.54-2.3.25-.75.58-1.46.97-2.15.4-.68.85-1.32,1.37-1.92.52-.59,1.1-1.13,1.72-1.61.63-.48,1.29-.9,2-1.25s1.44-.63,2.21-.83c.76-.2,1.54-.33,2.33-.38.79-.05,1.57-.03,2.36.08.78.1,1.55.28,2.3.54.75.25,1.46.58,2.15.97.68.4,1.32.85,1.92,1.37.59.52,1.13,1.09,1.61,1.72.48.63.9,1.29,1.25,2,.35.71.63,1.44.83,2.21.2.76.33,1.54.38,2.33.05.79.03,1.57-.08,2.36-.1.78-.28,1.55-.54,2.3-.25.75-.58,1.46-.97,2.15Z"/>
      <path class="cls-2" d="m260.02,215.4c-3.22,1.14-6.9.91-10.04-.91-5.77-3.31-7.77-10.67-4.4-16.44.05-.09.09-.18.18-.32-1.68,5.99.82,12.58,6.4,15.8,2.5,1.45,5.22,2.04,7.86,1.86h0Z"/>
      <path class="cls-10" d="m279.59,160.2c.29.16.55.36.8.57.25.22.47.46.67.72s.37.54.52.84c.15.3.26.6.35.92.09.32.14.64.16.97.02.33.01.66-.03.98-.04.33-.12.65-.22.96-.11.31-.24.61-.41.9-.17.29-.36.55-.57.8-.22.25-.46.47-.72.67-.26.2-.54.37-.84.52-.3.15-.6.26-.92.35-.32.09-.64.14-.97.16-.33.02-.66.01-.98-.03-.33-.04-.65-.12-.96-.22-.31-.11-.61-.24-.9-.41s-.55-.36-.8-.57-.47-.46-.67-.72c-.2-.26-.37-.54-.52-.84-.15-.3-.26-.6-.35-.92-.09-.32-.14-.64-.16-.97-.02-.33-.01-.66.03-.98.04-.33.12-.65.22-.96.11-.31.24-.61.41-.9.16-.29.36-.55.57-.8.22-.25.46-.47.72-.67.26-.2.54-.37.84-.52.3-.15.6-.26.92-.35.32-.09.64-.14.97-.16.33-.02.66-.01.98.03.33.04.65.12.96.22.31.11.61.24.9.41Z"/>
      <path class="cls-9" d="m260.21,172c.29.16.55.36.8.57.25.22.47.46.67.72.2.26.37.54.52.84.15.3.26.6.35.92.09.32.14.64.16.97.02.33.01.66-.03.98-.04.33-.12.65-.22.96s-.24.61-.41.9c-.17.29-.36.55-.57.8-.22.25-.46.47-.72.67-.26.2-.54.37-.84.52s-.6.26-.92.35c-.32.09-.64.14-.97.16-.33.02-.66.01-.98-.03s-.65-.12-.96-.22-.61-.24-.9-.41-.55-.36-.8-.57c-.25-.22-.47-.46-.67-.72-.2-.26-.37-.54-.52-.84-.15-.3-.26-.6-.35-.92-.09-.32-.14-.64-.16-.97-.02-.33-.01-.66.03-.98.04-.33.12-.65.22-.96.11-.31.24-.61.41-.9.17-.29.36-.55.57-.8.22-.25.46-.47.72-.67.26-.2.54-.37.84-.52.3-.15.6-.26.92-.35.32-.09.64-.14.97-.16.33-.02.66-.01.98.03.33.04.65.12.96.22s.61.24.9.41Z"/>
      <path class="cls-10" d="m211.63,138.91c.29.17.55.36.8.57.25.22.47.46.67.72.2.26.37.54.52.84s.26.6.35.92c.09.32.14.64.16.97.02.33.01.66-.03.98-.04.33-.12.65-.22.96-.11.31-.24.61-.41.9-.16.29-.36.55-.57.8-.22.25-.46.47-.72.67-.26.2-.54.37-.84.52-.3.15-.6.26-.92.35-.32.09-.64.14-.97.16-.33.02-.66.01-.98-.03-.33-.04-.65-.12-.96-.22-.31-.11-.61-.24-.9-.41-.29-.16-.55-.36-.8-.57-.25-.22-.47-.46-.67-.72-.2-.26-.37-.54-.52-.84-.15-.3-.26-.6-.35-.92-.09-.32-.14-.64-.16-.97-.02-.33-.01-.66.03-.98.04-.33.12-.65.22-.96.11-.31.24-.61.41-.9.16-.29.36-.55.57-.8.22-.25.46-.47.72-.67.26-.2.54-.37.84-.52.3-.15.6-.26.92-.35.32-.09.64-.14.97-.16.33-.02.66-.01.98.03.33.04.65.12.96.22.31.11.61.24.9.41Z"/>
      <path class="cls-9" d="m223.98,121.91c.29.17.55.36.8.57.25.22.47.46.67.72.2.26.37.54.52.84.15.3.26.6.35.92.09.32.14.64.16.97.02.33.01.66-.03.98-.04.33-.12.65-.22.96-.11.31-.24.61-.41.9-.17.29-.36.55-.57.8-.22.25-.46.47-.72.67-.26.2-.54.37-.84.52-.3.15-.6.26-.92.35-.32.09-.64.14-.97.16-.33.02-.66.01-.98-.03-.33-.04-.65-.12-.96-.22-.31-.11-.61-.24-.9-.41s-.55-.36-.8-.57c-.25-.22-.47-.46-.67-.72-.2-.26-.37-.54-.52-.84-.15-.3-.26-.6-.35-.92-.09-.32-.14-.64-.16-.97-.02-.33-.01-.66.03-.98.04-.33.12-.65.22-.96.11-.31.24-.61.41-.9.17-.29.36-.55.57-.8.22-.25.46-.47.72-.67.26-.2.54-.37.84-.52s.6-.26.92-.35c.32-.09.64-.14.97-.16.33-.02.66-.01.98.03.33.04.65.12.96.22.31.11.61.24.9.41Z"/>
      <path class="cls-10" d="m207.39,207.05c.29.17.55.36.8.57.25.22.47.46.67.72.2.26.37.54.52.84.15.3.26.6.35.92.09.32.14.64.16.97.02.33.01.66-.03.98-.04.33-.12.65-.22.96-.11.31-.24.61-.41.9-.16.29-.36.55-.57.8-.22.25-.46.47-.72.67-.26.2-.54.37-.84.52-.3.15-.6.26-.92.35-.32.09-.64.14-.97.16-.33.02-.66.01-.98-.03-.33-.04-.65-.12-.96-.22-.31-.11-.61-.24-.9-.41-.29-.16-.55-.36-.8-.57-.25-.22-.47-.46-.67-.72-.2-.26-.37-.54-.52-.84s-.26-.6-.35-.92c-.09-.32-.14-.64-.16-.97-.02-.33-.01-.66.03-.98.04-.33.12-.65.22-.96.11-.31.24-.61.41-.9.16-.29.36-.55.57-.8.22-.25.46-.47.72-.67.26-.2.54-.37.84-.52.3-.15.6-.26.92-.35.32-.09.64-.14.97-.16.33-.02.66-.01.98.03s.65.12.96.22c.31.11.61.24.9.41Z"/>
      <path class="cls-9" d="m228.11,181.39c.29.17.55.36.8.57.25.22.47.46.67.72.2.26.37.54.52.84.15.3.26.6.35.92.09.32.14.64.16.97.02.33.01.66-.03.98-.04.33-.12.65-.22.96-.11.31-.24.61-.41.9-.16.29-.36.55-.57.8-.22.25-.46.47-.72.67-.26.2-.54.37-.84.52-.3.15-.6.26-.92.35-.32.09-.64.14-.97.16-.33.02-.66.01-.98-.03-.33-.04-.65-.12-.96-.22-.31-.11-.61-.24-.9-.41-.29-.16-.55-.36-.8-.57-.25-.22-.47-.46-.67-.72-.2-.26-.37-.54-.52-.84-.15-.3-.26-.6-.35-.92-.09-.32-.14-.64-.16-.97-.02-.33-.01-.66.03-.98.04-.33.12-.65.22-.96.11-.31.24-.61.41-.9.17-.29.36-.55.57-.8.22-.25.46-.47.72-.67.26-.2.54-.37.84-.52s.6-.26.92-.35c.32-.09.64-.14.97-.16.33-.02.66-.01.98.03.33.04.65.12.96.22.31.11.61.24.9.41Z"/>
      <path class="cls-9" d="m237.03,215.43c.29.17.55.36.8.57.25.22.47.46.67.72.2.26.37.54.52.84.15.3.26.6.35.92.09.32.14.64.16.97.02.33.01.66-.03.98-.04.33-.12.65-.22.96-.11.31-.24.61-.41.9s-.36.55-.57.8c-.22.25-.46.47-.72.67-.26.2-.54.37-.84.52-.3.15-.6.26-.92.35-.32.09-.64.14-.97.16-.33.02-.66.01-.98-.03-.33-.04-.65-.12-.96-.22s-.61-.24-.9-.41c-.29-.16-.55-.36-.8-.57-.25-.22-.47-.46-.67-.72-.2-.26-.37-.54-.52-.84-.15-.3-.26-.6-.35-.92-.09-.32-.14-.64-.16-.97-.02-.33-.01-.66.03-.98.04-.33.12-.65.22-.96.11-.31.24-.61.41-.9.17-.29.36-.55.57-.8.22-.25.46-.47.72-.67s.54-.37.84-.52c.3-.15.6-.26.92-.35.32-.09.64-.14.97-.16.33-.02.66-.01.98.03.33.04.65.12.96.22.31.11.61.24.9.41Z"/>
    </g>
  </g>
</svg>