<?xml version="1.0" encoding="UTF-8"?>
<svg id="Layer_1" data-name="Layer 1" xmlns="http://www.w3.org/2000/svg" xmlns:xlink="http://www.w3.org/1999/xlink" viewBox="0 0 335.61 52.27">
  <defs>
    <style>
      .cls-1, .cls-2 {
        fill-rule: evenodd;
      }

      .cls-1, .cls-3 {
        fill: #004aad;
      }

      .cls-4 {
        fill: #fff;
      }

      .cls-5, .cls-2, .cls-6 {
        fill: #7ed957;
      }

      .cls-6, .cls-7 {
        font-family: FuturaPT-Book, 'Futura PT';
        font-size: 48.08px;
      }

      .cls-8, .cls-9 {
        fill: none;
      }

      .cls-9 {
        clip-path: url(#clippath);
      }

      .cls-7 {
        fill: #ffbd59;
      }
    </style>
    <clipPath id="clippath">
      <rect class="cls-8" x="27.01" y="4.25" width="36" height="36"/>
    </clipPath>
  </defs>
  <g>
    <text class="cls-7" transform="translate(0 40.25)"><tspan x="0" y="0">K</tspan></text>
    <text class="cls-6" transform="translate(62.51 40.24)"><tspan x="0" y="0">LABORATORY</tspan></text>
  </g>
  <g class="cls-9">
    <path class="cls-3" d="m58.06,22.22c0,.86-.08,1.71-.25,2.55-.17.84-.42,1.66-.74,2.45-.33.79-.73,1.55-1.21,2.26-.48.71-1.02,1.37-1.63,1.98-.61.61-1.27,1.15-1.98,1.63-.71.48-1.47.88-2.26,1.21-.79.33-1.61.58-2.45.74-.84.17-1.69.25-2.55.25s-1.71-.08-2.55-.25c-.84-.17-1.66-.42-2.45-.74-.79-.33-1.55-.73-2.26-1.21-.71-.48-1.37-1.02-1.98-1.63-.61-.61-1.15-1.27-1.63-1.98-.48-.71-.88-1.47-1.21-2.26-.33-.79-.58-1.61-.74-2.45-.17-.84-.25-1.69-.25-2.55s.08-1.71.25-2.55c.17-.84.42-1.66.74-2.45.33-.79.73-1.55,1.21-2.26.48-.71,1.02-1.37,1.63-1.98.61-.61,1.27-1.15,1.98-1.63.71-.48,1.47-.88,2.26-1.21.79-.33,1.61-.58,2.45-.74.84-.17,1.69-.25,2.55-.25s1.71.08,2.55.25c.84.17,1.66.42,2.45.74.79.33,1.55.73,2.26,1.21.71.48,1.37,1.02,1.98,1.63.61.61,1.15,1.27,1.63,1.98s.88,1.47,1.21,2.26c.33.79.58,1.61.74,2.45.17.84.25,1.69.25,2.55Z"/>
    <rect class="cls-3" x="43.73" y="5.5" width="2.5" height="7.5"/>
    <path class="cls-1" d="m48.73,5.04v.91c0,.22-.08.41-.23.56s-.34.23-.56.23h-5.91c-.22,0-.41-.08-.56-.23-.16-.16-.23-.34-.23-.56v-.91c0-.22.08-.41.23-.56.16-.16.34-.23.56-.23h5.91c.22,0,.41.08.56.23s.23.34.23.56Z"/>
    <rect class="cls-3" x="50.4" y="11.8" width="7.5" height="2.5" transform="translate(6.64 42.11) rotate(-45)"/>
    <path class="cls-2" d="m59.77,12.72l-.64.64c-.16.16-.34.23-.56.23s-.41-.08-.56-.23l-4.18-4.18c-.16-.16-.23-.34-.23-.56s.08-.41.23-.56l.64-.64c.16-.16.34-.23.56-.23.22,0,.41.08.56.23l4.18,4.18c.16.16.23.34.23.56s-.08.41-.23.56Z"/>
    <rect class="cls-3" x="54.2" y="20.96" width="7.5" height="2.5"/>
    <path class="cls-1" d="m61.24,18.46h.91c.22,0,.41.08.56.23s.23.34.23.56v5.91c0,.22-.08.41-.23.56-.16.16-.34.23-.56.23h-.91c-.22,0-.41-.08-.56-.23-.16-.16-.23-.34-.23-.56v-5.91c0-.22.08-.41.23-.56s.34-.23.56-.23Z"/>
    <rect class="cls-3" x="52.9" y="27.63" width="2.5" height="7.5" transform="translate(-6.33 47.48) rotate(-45)"/>
    <path class="cls-2" d="m54.47,37.01l-.64-.64c-.16-.16-.23-.34-.23-.56s.08-.41.23-.56l4.18-4.18c.16-.16.34-.23.56-.23s.41.08.56.23l.64.64c.16.16.23.34.23.56s-.08.41-.23.56l-4.18,4.18c-.16.16-.34.23-.56.23s-.41-.08-.56-.23Z"/>
    <rect class="cls-3" x="43.73" y="31.43" width="2.5" height="7.5"/>
    <path class="cls-1" d="m41.23,39.38v-.91c0-.22.08-.41.23-.56.16-.16.34-.23.56-.23h5.91c.22,0,.41.08.56.23.16.16.23.34.23.56v.91c0,.22-.08.41-.23.56-.16.16-.34.23-.56.23h-5.91c-.22,0-.41-.08-.56-.23s-.23-.34-.23-.56Z"/>
    <rect class="cls-3" x="32.06" y="30.14" width="7.5" height="2.5" transform="translate(-11.7 34.51) rotate(-45)"/>
    <path class="cls-2" d="m30.19,31.7l.64-.64c.16-.16.34-.23.56-.23s.41.08.56.23l4.18,4.18c.16.16.23.34.23.56s-.08.41-.23.56l-.64.64c-.16.16-.34.23-.56.23s-.41-.08-.56-.23l-4.18-4.18c-.16-.16-.23-.34-.23-.56s.08-.41.23-.56Z"/>
    <rect class="cls-3" x="28.26" y="20.97" width="7.5" height="2.5"/>
    <path class="cls-1" d="m27.81,18.46h.91c.22,0,.41.08.56.23s.23.34.23.56v5.91c0,.22-.08.41-.23.56-.16.16-.34.23-.56.23h-.91c-.22,0-.41-.08-.56-.23-.16-.16-.23-.34-.23-.56v-5.91c0-.22.08-.41.23-.56.16-.16.34-.23.56-.23Z"/>
    <rect class="cls-3" x="34.56" y="9.3" width="2.5" height="7.5" transform="translate(1.26 29.14) rotate(-45)"/>
    <path class="cls-2" d="m35.49,7.42l.64.64c.16.16.23.34.23.56s-.08.41-.23.56l-4.18,4.18c-.16.16-.34.23-.56.23s-.41-.08-.56-.23l-.64-.64c-.16-.16-.23-.34-.23-.56,0-.22.08-.41.23-.56l4.18-4.18c.16-.16.34-.23.56-.23s.41.08.56.23Z"/>
    <path class="cls-5" d="m51.03,15.56c0,.38-.07.75-.22,1.1-.15.35-.35.67-.63.94-.27.27-.58.48-.94.63s-.72.22-1.1.22-.75-.07-1.1-.22-.67-.35-.94-.63c-.27-.27-.48-.58-.63-.94-.15-.35-.22-.72-.22-1.1,0-.38.07-.75.22-1.1.15-.35.35-.67.63-.94.27-.27.58-.48.94-.63.35-.15.72-.22,1.1-.22s.75.07,1.1.22.67.35.94.63c.27.27.48.58.63.94.15.35.22.72.22,1.1Z"/>
    <path class="cls-2" d="m49.98,18.34c-.53.62-1.31,1.01-2.19,1.01-1.6,0-2.88-1.28-2.88-2.88v-.08c.37,1.44,1.67,2.51,3.23,2.51.67,0,1.31-.2,1.84-.55Z"/>
    <path class="cls-5" d="m39.09,19.42c.27.16.5.36.7.61.19.25.33.53.41.83.08.3.1.61.06.92-.04.31-.14.6-.3.88s-.36.5-.61.7c-.25.19-.53.33-.83.41s-.61.1-.92.06c-.31-.04-.6-.14-.88-.3-.27-.16-.5-.36-.7-.61-.19-.25-.33-.53-.41-.83-.08-.3-.1-.61-.06-.92s.14-.6.3-.88.36-.5.61-.7c.25-.19.53-.33.83-.41s.61-.1.92-.06c.31.04.6.14.88.3Z"/>
    <path class="cls-2" d="m40.64,21.31c.22.63.18,1.35-.18,1.98-.65,1.13-2.1,1.52-3.23.87-.02-.02-.04-.03-.06-.04,1.17.33,2.48-.17,3.11-1.28.28-.48.4-1.02.36-1.53Z"/>
    <path class="cls-5" d="m52.73,28.83c-.16.28-.37.52-.63.72-.26.2-.54.34-.86.42-.31.08-.63.1-.95.06s-.62-.14-.9-.31c-.28-.16-.52-.37-.72-.63-.2-.26-.34-.54-.42-.86-.08-.31-.1-.63-.06-.95.04-.32.14-.62.31-.9s.37-.52.63-.72c.26-.2.54-.34.86-.42.31-.08.63-.1.95-.06.32.04.62.14.9.31.28.16.52.37.72.63.2.26.34.54.42.86.08.31.1.63.06.95-.04.32-.14.62-.31.91Z"/>
    <path class="cls-2" d="m50.79,30.43c-.66.23-1.4.18-2.04-.18-1.17-.67-1.58-2.17-.9-3.35,0-.02.02-.04.04-.06-.34,1.22.17,2.56,1.3,3.22.51.3,1.06.42,1.6.38h0Z"/>
    <path class="cls-5" d="m54.77,19.2c.12.07.22.16.3.26.08.11.14.23.18.36.04.13.04.26.03.4s-.06.26-.13.38c-.07.12-.16.22-.26.3-.11.08-.23.14-.36.18-.13.04-.26.04-.4.03-.13-.02-.26-.06-.38-.13-.12-.07-.22-.16-.3-.26-.08-.11-.14-.23-.18-.36-.04-.13-.04-.26-.03-.4.02-.13.06-.26.13-.38.07-.12.16-.22.26-.3.11-.08.23-.14.36-.18.13-.04.26-.04.4-.03s.26.06.38.13Z"/>
    <path class="cls-4" d="m50.82,21.6c.12.07.22.16.3.26.08.11.14.23.18.36.04.13.04.26.03.4-.02.13-.06.26-.13.38-.07.12-.16.22-.26.3s-.23.14-.36.18c-.13.04-.26.04-.4.03-.13-.02-.26-.06-.38-.13-.12-.07-.22-.16-.3-.26-.08-.11-.14-.23-.18-.36-.04-.13-.04-.26-.03-.4.02-.13.06-.26.13-.38.07-.12.16-.22.26-.3.11-.08.23-.14.36-.18.13-.04.26-.04.4-.03s.26.06.38.13Z"/>
    <path class="cls-5" d="m40.94,14.86c.12.07.22.16.3.26.08.11.14.23.18.36s.04.26.03.4c-.02.13-.06.26-.13.38-.07.12-.16.22-.26.3-.11.08-.23.14-.36.18-.13.04-.26.04-.4.03s-.26-.06-.38-.13c-.12-.07-.22-.16-.3-.26-.08-.11-.14-.23-.18-.36-.04-.13-.04-.26-.03-.4.02-.13.06-.26.13-.38.07-.12.16-.22.26-.3s.23-.14.36-.18c.13-.04.26-.04.4-.03.13.02.26.06.38.13Z"/>
    <path class="cls-4" d="m43.45,11.4c.12.07.22.16.3.26.08.11.14.23.18.36.04.13.04.26.03.4-.02.13-.06.26-.13.38-.07.12-.16.22-.26.3-.11.08-.23.14-.36.18-.13.04-.26.04-.4.03s-.26-.06-.38-.13c-.12-.07-.22-.16-.3-.26-.08-.11-.14-.23-.18-.36-.04-.13-.04-.26-.03-.4.02-.13.06-.26.13-.38.07-.12.16-.22.26-.3.11-.08.23-.14.36-.18.13-.04.26-.04.4-.03.13.02.26.06.38.13Z"/>
    <path class="cls-5" d="m40.07,28.73c.12.07.22.16.3.26.08.11.14.23.18.36.04.13.04.26.03.4-.02.13-.06.26-.13.38-.07.12-.16.22-.26.3s-.23.14-.36.18c-.13.04-.26.04-.4.03-.13-.02-.26-.06-.38-.13-.12-.07-.22-.16-.3-.26-.08-.11-.14-.23-.18-.36-.04-.13-.04-.26-.03-.4.02-.13.06-.26.13-.38.07-.12.16-.22.26-.3.11-.08.23-.14.36-.18.13-.04.26-.04.4-.03s.26.06.38.13Z"/>
    <path class="cls-4" d="m44.29,23.51c.12.07.22.16.3.26.08.11.14.23.18.36.04.13.04.26.03.4-.02.13-.06.26-.13.38-.07.12-.16.22-.26.3-.11.08-.23.14-.36.18-.13.04-.26.04-.4.03s-.26-.06-.38-.13c-.12-.07-.22-.16-.3-.26-.08-.11-.14-.23-.18-.36-.04-.13-.04-.26-.03-.4.02-.13.06-.26.13-.38.07-.12.16-.22.26-.3s.23-.14.36-.18c.13-.04.26-.04.4-.03.13.02.26.06.38.13Z"/>
    <path class="cls-4" d="m46.11,30.44c.12.07.22.16.3.26.08.11.14.23.18.36.04.13.04.26.03.4-.02.13-.06.26-.13.38-.07.12-.16.22-.26.3-.11.08-.23.14-.36.18-.13.04-.26.04-.4.03s-.26-.06-.38-.13c-.12-.07-.22-.16-.3-.26-.08-.11-.14-.23-.18-.36-.04-.13-.04-.26-.03-.4.02-.13.06-.26.13-.38.07-.12.16-.22.26-.3s.23-.14.36-.18c.13-.04.26-.04.4-.03.13.02.26.06.38.13Z"/>
  </g>
</svg>